<?xml version="1.0" encoding="utf-8"?>
<!-- Generator: Adobe Illustrator 16.0.0, SVG Export Plug-In . SVG Version: 6.00 Build 0)  -->
<!DOCTYPE svg PUBLIC "-//W3C//DTD SVG 1.1//EN" "http://www.w3.org/Graphics/SVG/1.1/DTD/svg11.dtd">
<svg version="1.1" id="Layer_1" xmlns="http://www.w3.org/2000/svg" xmlns:xlink="http://www.w3.org/1999/xlink" x="0px" y="0px"
	 width="595.28px" height="841.89px" viewBox="0 0 595.28 841.89" enable-background="new 0 0 595.28 841.89" xml:space="preserve">
<g>
	<path fill-rule="evenodd" clip-rule="evenodd" fill="#FEFEFE" d="M298.975,223.89c64.992,0,129.984,0.034,194.976-0.097
		c3.424-0.007,4.098,0.673,4.095,4.096c-0.112,129.983-0.112,259.967,0,389.951c0.003,3.423-0.67,4.098-4.095,4.095
		c-129.983-0.112-259.967-0.112-389.95,0c-3.423,0.003-4.098-0.67-4.095-4.095c0.113-129.983,0.112-259.967,0-389.95
		c-0.003-3.423,0.669-4.106,4.095-4.097c58.326,0.135,116.652,0.097,174.978,0.097c-0.453,2.833-2.938,2.257-4.658,2.532
		c-9.871,1.573-19.686,3.361-29.448,5.556c-30.871,6.943-51.227,25.821-62.386,54.927c-6.381,16.642-10.908,33.939-15.553,51.103
		c-4.2,15.519-0.365,31.116,4.295,46.136c6.065,19.546,18.37,34.897,33.86,47.879c2.178,1.825,4.282,3.716,6.135,5.86
		c2.719,3.146,4.439,6.623,3.446,10.98c-0.454,1.993-0.339,3.981,0.775,5.791c2.723,4.343,7.493,5.753,11.609,8.088
		c0.406,0.15,0.798,0.341,1.182,0.539c1.271,0.718,2.592,1.347,3.924,1.951c0.757,0.351,1.508,0.711,2.279,1.035
		c1.605,0.664,3.272,1.128,4.95,1.58c0.465,0.105,0.913,0.242,1.366,0.387c1.894,0.635,4.012,0.897,4.992,3.032
		c1.059,2.959-0.013,5.803-0.443,8.683c-2.864,11.637-5.169,23.422-9.006,34.809c-0.319,0.947-0.572,1.919-0.646,2.921
		c-0.13,1.769,0.143,3.456,2.011,4.142c2.06,0.753,3.528-0.344,4.612-2.015c1.105-1.703,1.575-3.677,2.128-5.585
		c3.89-13.432,7.402-26.951,9.243-40.843c-0.009-0.732,0.005-1.467,0.026-2.195c-0.214-2.803,1.13-6.027-2.189-7.979
		c-0.424-0.186-0.836-0.387-1.256-0.574c-3.438-0.923-6.939-1.558-10.369-2.488c-1.846-0.469-3.659-1.019-5.256-2.105
		c-1.277-1.021-2.777-1.541-4.35-1.899c-1.2-0.293-2.308-0.765-3.214-1.635c-2.326-2.021-4.668-4.034-4.339-7.576
		c0.064-5.663-2.294-10.173-6.134-14.259c-6.614-7.037-14.524-12.674-20.774-20.135c-12.701-15.16-19.816-32.555-22.107-52.07
		c-0.127-3.133,0.134-6.293-0.758-9.363c-0.549-4.897,0.389-9.667,1.885-14.229c4.195-12.79,8.079-25.67,11.629-38.647
		c4.127-15.093,12.155-27.935,22.434-39.506c4.716-5.309,10.553-9.257,16.945-12.082c17.821-7.877,36.673-11.646,56.033-13.142
		c6.455,0.088,12.908-0.162,19.353,0.123c10.627,2.131,21.313,3.366,32.203,2.943c17.226-0.668,33.041,4.978,48.633,11.417
		c1.693,0.699,3.217,1.748,4.691,2.838c6.544,4.839,7.954,11.02,3.465,17.792c-2.458,3.709-2.606,6.759-0.288,10.528
		c2.78,4.521,4.673,9.564,7.663,13.994c1.238,2.596,2.07,5.366,3.335,7.958c4.593,15.282,7.569,30.705,3.613,46.638
		c-2.896,11.654,1.759,20.752,9.548,28.838c1.617,1.68,3.412,3.158,5.199,4.654c4.608,3.86,4.58,6.475-0.004,10.512
		c-0.874,0.77-1.776,1.523-2.758,2.139c-6.798,4.272-8.211,10.561-6.382,17.809c1.021,4.048,1.177,7.49-2.747,10.12
		c-1.275,0.855-2.264,2.559-1.595,3.925c2.201,4.502-0.488,7.516-2.751,10.741c-1.482,4.433-0.272,9.028-0.834,13.514
		c-0.054,0.543-0.178,1.07-0.349,1.588c-0.787,2.055-2.021,3.8-3.682,5.244c-4.271,2.83-8.976,4.471-14.097,4.338
		c-7.181-0.187-14.291,0.553-21.423,1.1c-8.321,0.638-14.355,4.578-18.368,11.938c-6.012,11.027-9.501,23.08-14.32,34.59
		c-2.186,5.222-3.812,10.66-5.879,15.929c-1.648,3.561-3.033,7.225-4.221,10.964c-0.399,1.071-1.06,2.073-1.116,3.245
		c-0.099,2.037,0.823,3.571,2.756,4.187c2.143,0.682,3.45-0.455,4.098-2.449c0.405-1.248,0.655-2.556,1.508-3.616
		c2.313-3.218,2.828-7.142,4.21-10.728c5.222-12.768,9.784-25.783,14.78-38.633c1.024-2.637,2.134-5.222,3.351-7.773
		c3.427-7.187,8.856-10.802,17.039-10.438c8.802,0.391,17.574-0.247,26.227-2.091c4.493-0.958,8.452-2.926,11.788-6.099
		c2.408-1.886,3.845-4.372,4.489-7.345c0.569-2.117,0.521-4.292,0.688-6.45c0.321-4.176,0.934-8.265,3.604-11.761
		c1.562-2.046,2.297-4.423,2.009-7.043c-0.191-1.733,0.151-3.372,1.247-4.714c3.108-3.804,3.071-7.949,1.392-12.243
		c-1.995-5.098-0.366-8.729,3.706-12.241c12.209-10.533,11.973-15.871-0.373-26.252c-7.698-6.473-11.309-14.481-9.328-24.769
		c4.258-22.126,0.608-43.03-10.241-62.73c-1.367-2.482-2.317-5.168-3.591-7.698c-1.207-2.396-1.427-4.856-0.05-7.181
		c6.348-10.721-0.032-23.519-10.554-28.457c-16.175-7.592-32.936-13.585-51.304-13.206c-7.801,0.162-15.675,0.774-23.393-1.18
		c-4.44-1.313-9.265-0.673-13.573-2.66C298.731,224.927,298.649,224.444,298.975,223.89z"/>
	<path fill-rule="evenodd" clip-rule="evenodd" fill="#01ABD6" d="M174.848,360.861c2.822,19.648,9.742,37.46,23.26,52.373
		c5.151,5.683,11.152,10.438,16.691,15.694c5.157,4.893,9.58,10.193,9.009,17.976c-1.725,4.176,1.524,5.384,4.153,6.964
		c0.702,1.175,2.08,0.602,3.017,1.169c0.591,1.932,2.577,1.04,3.726,1.843c1.759,0.719,3.519,1.438,5.278,2.158
		c2.732,4.67,7.218,2.362,11.021,2.769c0.327,0.086,0.653,0.172,0.979,0.259c2.644,2.371,1.99,5.867,3,8.795
		c-0.018,0.67-0.035,1.34-0.052,2.01c-2.929,2.66-2.166-0.472-2.631-1.677c-0.02,4.544,0.969,9.058,0.214,13.635
		c-0.292,1.775-0.529,3.503-2.68,3.382c-1.914-0.107-2.289-1.681-1.879-3.322c0.839-3.359-3.401-2.717-3.877-5.013
		c-0.219-3.063,1.506-5.928,0.912-9.028c-2.227,1.052,3.169-4.188-1.3-1.563c-0.875,0.515-2.604,0.394-3.824-0.375l-0.491,0.003
		l-0.428-0.242c-1.083-0.511-1.858-1.172-1.25-2.52c0.955-0.672,1.018-1.558,0.603-2.547c0.002,0.008-0.179-0.452-0.179-0.452
		s0.139,0.478,0.141,0.481c-0.009,0.91,0.307,1.897-0.634,2.582c-1.162,0.636-2.341,1.146-3.699,0.678
		c-0.78,0.005-1.601,0.116-2.035-0.781c-0.863-1.704-2.614-1.628-4.115-2.054l0.085,0.089c-4.308-2.899-8.682-5.691-13.263-8.146
		c-2.366-1.679-2.165-4.217-1.454-6.351c1.702-5.108-0.568-8.743-3.924-11.979c-4.31-4.154-8.886-8.032-13.208-12.174
		c-18.955-18.164-28.807-40.49-31.366-66.543c-1.242-12.643,0.723-24.415,5.264-36.05c4.232-10.844,5.976-22.449,10.074-33.36
		c7.242-19.282,17.846-36.181,35.583-47.285c14.434-9.036,31.027-12.352,47.574-15.467c5.273-0.993,10.825-0.509,15.836-2.898
		c2,0,4,0,5.999,0c3.333,0.847,6.666,0.847,9.999,0c1.333,0,2.666,0,3.999,0c0.008,0.289,0.027,0.576,0.06,0.863
		c1.333,2.044,0.873,3.551-1.029,5.113c-4.139,3.398-8.595,5.431-14.087,4.535c-0.955-0.155-1.997-0.171-2.924,0.342
		c-14.741,1.466-29.168,4.412-43.385,8.617c-22.513,6.661-36.124,22.581-45.449,43.037c-5.263,11.543-7.362,24.104-11.279,36.077
		c-3.042,9.297-6.985,18.327-6.768,28.381c-0.978,2.124-1.538,5.149-5.054,2.156C169.425,356.909,174.225,357.384,174.848,360.861z"
		/>
	<path fill-rule="evenodd" clip-rule="evenodd" fill="#87D3E1" d="M294.976,223.89c-3.333,1.6-6.666,1.527-9.999,0
		C288.31,223.89,291.643,223.89,294.976,223.89z"/>
	<path fill-rule="evenodd" clip-rule="evenodd" fill="#01ABD7" d="M356.833,339.874c3.514,11.115,2.69,22.341,0.426,33.478
		c-4.8,23.6-14.972,45.371-23.729,67.59c-7.673,19.467-14.532,39.212-21.545,58.91c-0.561,1.686-1.469,2.767-3.509,2.539
		c-1.893-0.212-3.003-1.179-3.481-2.931c-0.79-2.889-0.903-5.684,0.153-8.646c0.687-1.927,2.311-3.681,1.733-5.995
		c3.689-13.46,9.046-26.329,13.978-39.348c7.996-21.108,17.419-41.685,23.859-63.372c5.514-18.563,6.984-36.969-3.721-54.419
		c-7.63-12.437-17.818-20.557-33.489-18.914c-4.41,0.463-8.323,2.19-12.059,4.405c-0.817,0.484-1.942,1.282-2.012,2.021
		c-0.138,1.465,1.496,1.439,2.491,1.834c9.021,3.579,15.969,9.518,20.382,18.195c7.187,14.13-0.874,30.771-15.378,31.952
		c-5.998,0.488-11.331-1.34-15.48-5.518c-8.972-9.032-13.907-19.645-11.392-32.757c2.194,0.212,2.019,1.879,1.682,3.224
		c-0.436,1.741-0.002,3.51-0.383,5.22c0.301-1.282,0.022-2.602,0.17-3.894c6.445-1.095,7.358-0.451,9.568,6.716
		c1.83,3.533,3.183,7.313,5.602,10.537c3.334,4.445,8.737,6.129,12.628,3.897c4.104-2.356,5.346-8.04,3.04-13.257
		c-3.007-6.805-8.299-11.039-15.034-13.719c-2.434-0.969-4.823-1.27-7.023,0.593c-2.494,0.054-4.969-0.784-7.482-0.178
		c-2.588,0.404-1.398-3.53-3.821-3.325c-2.542,0.735-5.182,1.233-7.609,2.243c-17.072,7.099-23.024,22.75-14.979,40.638
		c6.041,13.433,12.843,26.522,19.173,39.828c1.408,2.958,3.045,5.891,3.48,9.242c2.288,6.543-3.829,6.708-6.945,9.15
		c-6.475-17.879-15.764-34.448-23.94-51.537c-14.274-29.832,1.466-57.435,34.386-60.26c2.336-0.2,3.924-0.93,5.539-2.591
		c16.712-17.201,40.352-17.718,57.854-1.251c6.487,6.104,11.382,13.308,13.966,21.938
		C355.627,334.427,355.047,337.592,356.833,339.874z"/>
	<path fill-rule="evenodd" clip-rule="evenodd" fill="#01ABD6" d="M396.712,293.971c-4.378-5.307-5.999-12.17-10.003-17.7
		c-1.511-2.085-0.639-4.038,0.724-5.934c6.609-9.196,5.127-16.176-5.502-20.903c-15.503-6.893-31.48-12.488-48.916-11.343
		c-10.532,0.691-20.818-0.895-31.042-3.168c-0.465-0.508-0.998-0.856-1.729-0.781c-0.938,0.098-2.156,0.6-2.368-0.862
		c-0.15-1.04,0.568-2.188,1.483-2.391c4.64-1.03,8.315-5.315,13.618-4.042c11.85,2.237,23.896,0.306,35.808,1.737
		c5.822,0.7,11.483,1.752,16.963,3.768c6.696,2.461,13.49,4.718,20.007,7.598c7.754,3.428,13.544,8.786,15.558,17.604
		c1.16,5.079,0.213,9.623-2.182,13.922c-1.223,2.197-1.13,3.848,0.055,5.963c7.521,13.422,13.515,27.376,15.152,42.916
		c1.001,9.495,1.27,18.93-1.001,28.26c-2.485,10.204,1.639,17.727,9.254,23.978c1.799,1.476,3.644,2.924,5.269,4.581
		c5.534,5.646,5.809,11.721,0.612,17.744c-2.047,2.373-4.42,4.585-7.005,6.337c-2.94,1.992-4.066,4.368-2.921,7.62
		c2.116,6.01,3.675,11.86-1.949,16.977c-0.899,0.818-0.14,1.866,0.071,2.812c0.413,1.854,0.496,3.914-0.793,5.259
		c-4.985,5.199-4.591,11.769-5.078,18.162c-0.072,0.95-0.631,1.864-0.964,2.796c-0.306,0.604-0.707,1.108-1.375,1.336
		c-0.438-0.018-0.835-0.162-1.187-0.425c-0.755-0.682-1.155-1.686-2.046-2.248c-0.371-0.173-0.738-0.337-1.127-0.455
		c-1.065-0.564-3.192,1.15-3.281-1.504c-0.15-0.274-0.107-0.514,0.128-0.719c1.704-4.995-0.272-10.214,0.927-15.238
		c0.056-1.509,1.02-2.458,2.179-3.131c2.012-1.167,2.307-2.369,0.943-4.404c-2.174-3.243-1.231-5.988,2.067-7.928
		c2.445-1.438,3.298-3.083,2.316-6.126c-2.864-8.88-1.966-16.763,7.201-21.794c0.576-0.315,1.079-0.775,1.586-1.203
		c4.819-4.064,4.924-5.26-0.098-8.998c-7.905-5.884-13.046-13.456-15.578-23c-0.965-3.633-0.152-7.042,0.587-10.321
		c3.506-15.547,1.639-30.635-3.055-45.583c-0.195-0.622-0.152-1.317-0.221-1.978c0.537-1.995,0.306-4.486,3.08-5.122
		C401.414,294.021,398.541,295.47,396.712,293.971z"/>
	<path fill-rule="evenodd" clip-rule="evenodd" fill="#02ABD6" d="M303.11,604.748c-30.936-2.218-60.77-10.271-87.852-27.282
		c-3.403-2.137-6.376-4.808-8.918-7.927c-1.922-2.358-3.353-4.971-3.566-8.088c-0.254-3.707,0.773-7.036,4.881-7.371
		c3.528-0.288,5.23,2.272,5.352,5.823c0.125,3.657,3.063,5.375,5.503,7.27c9.703,7.531,20.822,12.395,32.314,16.343
		c19.41,6.667,39.119,11.908,59.97,10.348c3.515-0.264,6.867-0.631,9.037-4.183c1.246-2.042,3.552-2.368,5.776-1.262
		c2.408,1.198,3.259,3.205,2.631,5.8c-1.223,5.05-5.278,7.056-9.604,8.506C313.861,604.326,308.808,604.268,303.11,604.748z"/>
	<path fill-rule="evenodd" clip-rule="evenodd" fill="#02ABD6" d="M309.193,585.042c-32.665-2.788-63.824-10.339-91.186-29.556
		c-4.386-3.08-8.127-6.96-9.354-12.489c-0.833-3.752-0.292-7.351,4.039-8.318c4.339-0.97,5.788,2.029,6.208,5.82
		c0.459,4.147,3.884,6.056,6.776,8.124c12.041,8.607,25.734,13.663,39.671,18.225c10.588,3.465,21.512,5.801,32.39,7.525
		c7.423,1.177,15.482,1.203,23.139-0.733c1.664-0.421,2.968-1.255,3.978-2.746c2.022-2.983,4.853-3.778,7.617-1.345
		c2.669,2.35,2.173,5.313,0.202,8.055c-2.711,3.773-6.725,5.281-11.017,6.201C317.578,584.679,313.441,585.092,309.193,585.042z"/>
	<path fill-rule="evenodd" clip-rule="evenodd" fill="#01ABD6" d="M314.442,565.234c-30.495-1.895-59.162-10.006-85.573-25.557
		c-5.018-2.954-9.506-6.726-12.661-11.818c-1.638-2.645-2.532-5.439-1.827-8.523c0.608-2.654,2.069-4.563,5.11-4.528
		c3.028,0.035,5.042,2.121,4.997,4.6c-0.078,4.288,2.621,6.269,5.361,8.363c12.221,9.339,26.336,14.752,40.835,19.22
		c15.933,4.91,32.112,8.629,48.966,7.816c4.393-0.212,8.909-0.046,11.859-4.673c1.38-2.163,4.186-1.952,6.338-0.557
		c2.257,1.462,2.725,3.768,1.736,6.173c-1.959,4.768-6.084,6.855-10.72,8.1C324.157,565.112,319.308,565.069,314.442,565.234z"/>
	<path fill-rule="evenodd" clip-rule="evenodd" fill="#02ACD6" d="M405.939,461.481c-4.998,5.874-11.882,7.736-19.066,8.369
		c-7.605,0.671-15.268,0.781-22.908,0.954c-5.977,0.136-9.942,2.935-12.496,8.248c-6.768,14.084-11.375,29.019-17.259,43.449
		c-0.618,1.516-1.315,2.999-1.976,4.497c-1.871-0.345-3.466-1.681-5.683,0.061c-1.478,1.16-3.841,0.595-3.684-2.386
		c5.877-16.405,11.583-32.876,18.885-48.73c4.634-10.062,12.227-15.409,23.511-15.312c4.821,0.041,9.646-0.435,14.469-0.474
		c6.412-0.051,12.551-1.064,18.183-4.314c2.147-1.469,4.541-2.358,7.047-2.982c1.417,0.582,1.559,2.44,2.999,3l0,0
		C409.394,458.493,405.805,459.318,405.939,461.481z"/>
	<path fill-rule="evenodd" clip-rule="evenodd" fill="#01ABD7" d="M276.825,426.884c7.476,23.653,6.694,47.521,1.736,71.465
		c-1.952,9.427-4.628,18.674-7.656,27.814c-0.313,0.945-0.639,1.888-0.994,2.818c-1.212,3.175-3.264,5.24-6.844,3.912
		c-3.273-1.215-3.684-3.94-2.76-7.022c2.002-6.672,4.104-13.315,5.955-20.029c5.355-19.433,7.42-39.161,4.671-59.225
		c-0.719-5.244-1.998-10.412-3.019-15.616c-0.475-0.777-0.584-2.047,0.167-2.127C271.091,428.549,273.558,425.907,276.825,426.884z"
		/>
	<path fill-rule="evenodd" clip-rule="evenodd" fill="#02ABD7" d="M244.076,479.874c0.933,0.323,1.859,0.9,2.799,0.924
		c3.221,0.08,3.783,1.564,2.376,4.15c-0.508,0.934-1.176,1.875,0.192,2.418c1.487,0.589,2.304-0.608,2.373-1.768
		c0.126-2.13,0.354-4.451-0.329-6.389c-1.208-3.425,0.767-6.291,0.183-9.539c2.473,0.4-0.41,4.477,3.259,3.198
		c0.315,7.788-2.622,15.007-4.152,22.448c-1.633,7.943-3.647,15.853-6.435,23.522c-1.201,3.307-2.936,5.958-6.842,4.813
		c-3.933-1.151-4.159-4.258-2.94-7.676C238.753,504.212,240.758,491.87,244.076,479.874z"/>
	<path fill-rule="evenodd" clip-rule="evenodd" fill="#02ABD6" d="M306.881,484.819c1.489,1.049,1.077,2.2,0.205,3.403
		c-2.102,2.897-2.086,6.045-1.333,9.404c0.962,4.281,1.911,4.688,6.231,2.226c-3.422,12.421-6.836,24.843-10.269,37.262
		c-0.913,3.305-3.183,4.663-6.414,3.774c-3.435-0.944-4.07-3.718-3.302-6.747c1.913-7.531,3.773-15.089,6.077-22.506
		C300.867,502.654,303.09,493.475,306.881,484.819z"/>
	<path fill-rule="evenodd" clip-rule="evenodd" fill="#02ABD7" d="M294.04,614.021c-2.908,6.307-8.981,6.449-14.379,6.44
		c-9.07-0.015-18.039-1.602-26.639-4.753c0.271-3.363,0.075-6.729,0.011-10.093c8.641,2.048,17.203,4.575,26.2,4.531
		c2.601-0.013,5.085,0.048,7.308-2.122c2.109-2.058,4.766-2.085,6.796,0.643C293.209,610.5,295.438,612.022,294.04,614.021z"/>
	<path fill-rule="evenodd" clip-rule="evenodd" fill="#03ABD6" d="M244.922,612.874c-7.229-2.118-13.773-5.548-19.418-10.535
		c-2.787-2.461-5.03-5.401-4.385-9.489c0.397-2.516,1.855-4.298,4.478-4.679c2.175-0.316,4.433,0.567,4.87,2.587
		c1.128,5.213,5.414,6.859,9.265,8.932c3.624,1.949,7.493,3.443,11.254,5.138c1.076,1.117,1.29,2.495,0.268,3.562
		c-1.685,1.76-2.742-1.338-4.628-0.681C244.541,608.716,248.635,612.244,244.922,612.874z"/>
	<path fill-rule="evenodd" clip-rule="evenodd" fill="#15B1D8" d="M322.868,524.673c2.809,2.526,3.051,2.57,4.686-0.353
		c0.788-1.411,1.425-0.915,2.142-0.192c0.898,0.906,1.698,1.909,2.539,2.87c-1.106,3.685-1.863,7.511-4.278,10.672
		c-3.47,1.023-6.644,0.624-9.363-1.95C320.019,532.038,321.443,528.356,322.868,524.673z"/>
	<path fill-rule="evenodd" clip-rule="evenodd" fill="#15B0D8" d="M312.978,226.846c-0.469,0.857-0.846,1.857-2.172,1.283
		c-0.72-0.313-2.081-0.871-2.096-0.839c-1.979,4.368-7.31,2.789-10.404,5.415c1.111,1.518,3.871-0.679,3.667,2.218
		c-6.993-0.06-13.986-0.12-20.979-0.18c1.213-1.233,2.897-1.173,4.208-0.813c6.09,1.674,8.687-4.337,13.275-5.929
		c0.501-0.173,0.386-2.122,0.557-3.248C303.719,225.204,308.435,225.451,312.978,226.846z"/>
	<path fill-rule="evenodd" clip-rule="evenodd" fill="#13AFD8" d="M244.922,612.874c0.814-0.399,0.614-1.125,0.46-1.733
		c-0.498-1.974-1.235-4.328,0.751-5.502c2.041-1.205,2.587,2.005,4.262,2.483c1.019-1.002,0.408-2.218,0.591-3.295
		c0.803-0.05,1.54,0.071,2.046,0.789c-0.639,3.584,2.397,3.124,4.746,3.967c-3.463,0.901-3.9,3.66-4.757,6.126
		C250.256,614.952,247.396,614.464,244.922,612.874z"/>
	<path fill-rule="evenodd" clip-rule="evenodd" fill="#0AADD5" d="M318.593,535.72c3.121,0.65,6.242,1.301,9.363,1.95
		c-0.211,0.245-0.583,0.475-0.608,0.738c-0.256,2.647-0.403,5.387-3.592,6.285c-1.842,0.52-3.634,0.206-4.981-1.294
		C316.543,540.917,317.043,538.319,318.593,535.72z"/>
	<path fill-rule="evenodd" clip-rule="evenodd" fill="#16B1D8" d="M276.825,426.884c-2.97,1.373-5.94,2.744-8.91,4.117
		c-1.168-1.532-1.453-3.368-1.788-5.188c1.208-1.756,1.57-3.996,4.716-4.13c2.571-0.11,1.208-3.409,2.229-5.02
		c1.232,1.855,2.076,3.843,2.082,6.116c-0.289,0.93,0.214,1.531,0.858,2.074C276.742,425.346,276.962,426.043,276.825,426.884z"/>
	<path fill-rule="evenodd" clip-rule="evenodd" fill="#11B0D9" d="M174.848,360.861c-2.058-2.333-5.354-3.248-6.842-6.336
		c-0.688-1.429-0.91-2.389,0.306-3.394c0.473-0.391,1.199-0.941,1.645-0.818c1.86,0.512-0.668,2.441,0.961,3.186
		c1.84,0.115,1.82-2.128,3.195-2.643C175.117,354.135,175.093,357.49,174.848,360.861z"/>
	<path fill-rule="evenodd" clip-rule="evenodd" fill="#17B1D7" d="M396.712,293.971c2.713,1.195,1.942-1.726,3.3-2.877
		c0.966,2.702,2.575,4.626,5.941,4.855c-4.611-0.771-3.092,4.713-6.152,5.208C398.771,298.762,397.742,296.366,396.712,293.971z"/>
	<path fill-rule="evenodd" clip-rule="evenodd" fill="#02ABD7" d="M251.003,461.805c-7.989,3.131-9.375,2.783-11.021-2.769
		C243.655,459.958,247.329,460.882,251.003,461.805z"/>
	<path fill-rule="evenodd" clip-rule="evenodd" fill="#07ACD3" d="M214.6,455.998c5.271,1.33,9.663,4.092,13.263,8.146
		C222.918,462.28,218.202,460.046,214.6,455.998z"/>
	<path fill-rule="evenodd" clip-rule="evenodd" fill="#02ADD0" d="M275.979,332.877c0,2.244,0,4.488,0,6.731
		c-1.895-3.418,0.171-7.374-1.918-10.71c-0.544-1.347,0.736-3.152-1.053-4.186c1.165-0.786,2.352-1.739,2.272,0.868
		c-0.033,1.071,0.869,1.205,1.7,1.296C278.214,329.139,277.487,331.073,275.979,332.877z"/>
	<path fill-rule="evenodd" clip-rule="evenodd" fill="#08ACD6" d="M401.872,435.625c0.112,4.565,0.153,9.135,0.383,13.696
		c0.06,1.183-0.422,1.411-1.31,1.542C401.221,445.781,400.407,440.633,401.872,435.625z"/>
	<path fill-rule="evenodd" clip-rule="evenodd" fill="#02ABD7" d="M239.864,468.907c3.851,0.923,5.668-1.796,7.483-4.699
		c1.724,3.481-1.561,4.557-2.359,6.638C243.475,469.683,241.251,470.4,239.864,468.907z"/>
	<path fill-rule="evenodd" clip-rule="evenodd" fill="#08ACD6" d="M404.962,452.861c-1.545,2.895-4.555,2.328-7.047,2.982
		c0.967-1.421,1.935-2.842,2.902-4.262C401.599,453.95,404.526,449.374,404.962,452.861z"/>
	<path fill-rule="evenodd" clip-rule="evenodd" fill="#02ABD7" d="M254.981,470.859c-1-2.932-2-5.863-3-8.795
		C255.941,463.987,255.219,467.505,254.981,470.859z"/>
	<path fill-rule="evenodd" clip-rule="evenodd" fill="#08ACD6" d="M405.939,461.481c-1.595-2.688,2.515-3.327,2.021-5.62
		c0.624-0.328,1.248-0.655,1.872-0.983C409.351,457.56,408.196,459.846,405.939,461.481z"/>
	<path fill-rule="evenodd" clip-rule="evenodd" fill="#07ACD3" d="M227.96,453.867c-3.825-0.866-6.504-2.414-4.153-6.964
		C222.406,450.885,226.365,451.672,227.96,453.867z"/>
	<path fill-rule="evenodd" clip-rule="evenodd" fill="#1CB2D7" d="M356.833,339.874c-2.704-1.938-2.088-5.117-2.902-7.761
		C356.159,334.228,356.224,337.152,356.833,339.874z"/>
	<path fill-rule="evenodd" clip-rule="evenodd" fill="#02ABD7" d="M237.983,465.861c0.321,0.936,0.642,1.872,0.962,2.807
		c-1.766-0.329-3.556-0.59-5.018-1.777c1.265-0.688,2.576-1.19,4.055-1.031L237.983,465.861z"/>
	<path fill-rule="evenodd" clip-rule="evenodd" fill="#03ADCC" d="M294.04,614.021c-0.159-1.084,0.208-2.372-1.139-3
		c-2.899-1.352-0.289-1.677,0.436-2.354C295.268,610.229,295.596,612.001,294.04,614.021z"/>
	<path fill-rule="evenodd" clip-rule="evenodd" fill="#07ACD3" d="M234.704,456.878c-1.679,0.27-4.024,1.887-3.726-1.843
		C232.277,455.534,233.849,455.481,234.704,456.878z"/>
	<path fill-rule="evenodd" clip-rule="evenodd" fill="#02ABD7" d="M227.777,464.055c1.734-0.043,3.93-1.009,4.115,2.054
		C230.375,465.715,228.848,465.344,227.777,464.055z"/>
	<path fill-rule="evenodd" clip-rule="evenodd" fill="#01ABD7" d="M276.012,424.853c-0.772-0.136-2.052-0.061-2.214-0.449
		c-0.363-0.874,0.632-1.276,1.355-1.625C275.439,423.47,275.726,424.162,276.012,424.853z"/>
	<path fill-rule="evenodd" clip-rule="evenodd" fill="#02ABD7" d="M237.982,465.859c-0.619-1-0.619-1.999,0-2.999
		c1.225,0.657,2.382,1.47,1.718,3.047c-0.312,0.739-1.132,0.083-1.718-0.046L237.982,465.859z"/>
	<path fill-rule="evenodd" clip-rule="evenodd" fill="#02ABD7" d="M235.859,461.835c0.377-0.576,0.597-0.912,0.817-1.248
		c0.394,0.441,0.825,0.859,1.145,1.351c0.05,0.078,0.75,1.027-0.307,0.826C236.975,462.662,236.501,462.209,235.859,461.835z"/>
	<path fill-rule="evenodd" clip-rule="evenodd" fill="#FEFEFE" d="M283.968,327.876c0.892-2.238,1.941-3.221,4.815-2.371
		c8.56,2.531,15.205,7.17,18.951,15.429c2.577,5.68,0.777,12.142-3.983,14.914c-4.417,2.572-9.358,1.13-13.563-3.748
		c-2.868-3.328-4.189-7.441-6.128-11.245C284.074,336.529,281.264,332.222,283.968,327.876z"/>
	<path fill-rule="evenodd" clip-rule="evenodd" fill="#05ACD7" d="M283.968,327.876c0.031,4.327,0.062,8.653,0.093,12.98
		c-0.313-0.374-0.936-0.79-0.891-1.114c0.514-3.725-0.809-5.77-4.801-5.369c-1.288,0.13-1.504-1.152-2.39-1.496
		c-0.355-2.115,0.669-4,1.001-6C279.57,325.386,281.881,325.849,283.968,327.876z"/>
	<path fill-rule="evenodd" clip-rule="evenodd" fill="#03ABCB" d="M308.09,234.626c2.157-0.952,3.411-0.816,4.883-0.446
		C311.701,235.451,310.399,234.732,308.09,234.626z"/>
	<path fill-rule="evenodd" clip-rule="evenodd" fill="#08ACD6" d="M407.961,455.861c-1.966-0.033-2.275-1.724-2.999-3
		C408.195,451.627,406.654,455.167,407.961,455.861z"/>
	<path fill-rule="evenodd" clip-rule="evenodd" fill="#01ABCE" d="M384.218,463.042c2.519,0,5.036,0,7.555,0
		c0.004,0.165,0.008,0.329,0.013,0.494c-2.534,0-5.068,0-7.604,0C384.193,463.372,384.206,463.208,384.218,463.042z"/>
	<path fill-rule="evenodd" clip-rule="evenodd" fill="#03AAD5" d="M326.74,533.113c0.078,0.729-0.157,1.3-0.915,1.474
		c-1.003,0.231-1.603-0.289-1.652-1.239c-0.035-0.688,0.409-1.258,1.182-1.282C326.048,532.042,326.623,532.31,326.74,533.113z"/>
	<path fill-rule="evenodd" clip-rule="evenodd" fill="#07AED1" d="M330.069,529.009c-0.668,0.552-1.074,1.023-1.587,1.232
		c-0.169,0.067-0.615-0.551-0.936-0.854c0.407-0.418,0.765-0.924,1.251-1.202C328.956,528.094,329.453,528.595,330.069,529.009z"/>
	<path fill-rule="evenodd" clip-rule="evenodd" fill="#06ADD5" d="M297.378,231.899c-0.465,0.418-0.87,0.983-1.417,1.221
		c-0.67,0.293-0.891-0.357-0.614-0.767c0.332-0.49,0.938-0.799,1.451-1.146C296.819,231.193,297.11,231.577,297.378,231.899z"/>
</g>
</svg>
