<svg xmlns="http://www.w3.org/2000/svg" xmlns:xlink="http://www.w3.org/1999/xlink" width="267.914" height="406.637" x="0" y="0" enable-background="new 164.282 215.298 267.914 406.637" version="1.1" viewBox="164.282 215.298 267.914 406.637" xml:space="preserve"><g id="Layer_2" display="none"><rect width="248.195" height="392.318" x="167.445" y="217.945" fill="#ED0F64" display="inline"/></g><g id="Layer_1"><g><path fill="#01ABD6" d="M174.848,360.861c2.822,19.648,9.742,37.46,23.26,52.374c5.151,5.683,11.152,10.437,16.691,15.693 c5.157,4.895,9.58,10.193,9.009,17.977c-1.725,4.176,1.524,5.385,4.153,6.965c0.702,1.174,2.08,0.602,3.017,1.168 c0.591,1.932,2.577,1.041,3.727,1.844c1.759,0.719,3.519,1.438,5.277,2.158c2.732,4.67,7.219,2.361,11.021,2.768 c0.327,0.086,0.652,0.172,0.979,0.26c2.645,2.371,1.99,5.867,3,8.795c-0.018,0.67-0.035,1.34-0.052,2.01 c-2.929,2.66-2.166-0.471-2.631-1.676c-0.021,4.543,0.969,9.057,0.214,13.635c-0.292,1.775-0.529,3.502-2.68,3.381 c-1.914-0.105-2.289-1.68-1.879-3.322c0.839-3.357-3.401-2.717-3.877-5.012c-0.22-3.063,1.506-5.928,0.911-9.029 c-2.227,1.053,3.17-4.188-1.3-1.563c-0.875,0.516-2.604,0.395-3.823-0.375l-0.491,0.004l-0.429-0.242 c-1.083-0.512-1.857-1.172-1.25-2.52c0.955-0.672,1.019-1.559,0.604-2.547c0.002,0.008-0.179-0.453-0.179-0.453 s0.139,0.479,0.141,0.48c-0.009,0.91,0.307,1.898-0.634,2.582c-1.162,0.637-2.341,1.146-3.699,0.678 c-0.78,0.006-1.601,0.117-2.035-0.779c-0.863-1.705-2.614-1.629-4.115-2.055l0.085,0.09c-4.308-2.9-8.682-5.691-13.263-8.146 c-2.366-1.68-2.165-4.217-1.454-6.352c1.702-5.107-0.567-8.742-3.924-11.979c-4.31-4.154-8.886-8.033-13.208-12.174 c-18.955-18.165-28.807-40.491-31.366-66.543c-1.242-12.643,0.724-24.415,5.265-36.05c4.231-10.844,5.976-22.449,10.073-33.36 c7.242-19.282,17.847-36.181,35.583-47.285c14.435-9.036,31.027-12.352,47.574-15.467c5.273-0.993,10.825-0.509,15.836-2.898 c2,0,4,0,5.999,0c3.333,0.847,6.666,0.847,9.999,0c1.333,0,2.666,0,3.999,0c0.008,0.289,0.027,0.576,0.061,0.863 c1.333,2.044,0.873,3.551-1.029,5.113c-4.139,3.398-8.595,5.431-14.087,4.535c-0.955-0.155-1.997-0.171-2.924,0.342 c-14.741,1.466-29.168,4.412-43.386,8.617c-22.513,6.661-36.124,22.581-45.448,43.037c-5.264,11.543-7.362,24.104-11.279,36.077 c-3.042,9.297-6.985,18.327-6.769,28.381c-0.978,2.124-1.537,5.149-5.054,2.156C169.425,356.909,174.225,357.384,174.848,360.861z"/><path fill="#87D3E1" d="M294.976,223.89c-3.333,1.6-6.666,1.527-9.999,0C288.31,223.89,291.643,223.89,294.976,223.89z"/><path fill="#01ABD7" d="M356.832,339.874c3.515,11.115,2.69,22.341,0.427,33.478c-4.8,23.6-14.973,45.371-23.729,67.591 c-7.673,19.467-14.532,39.211-21.545,58.908c-0.561,1.688-1.469,2.768-3.509,2.539c-1.894-0.211-3.003-1.178-3.48-2.93 c-0.79-2.889-0.903-5.684,0.152-8.646c0.688-1.928,2.312-3.682,1.733-5.994c3.688-13.461,9.046-26.33,13.978-39.35 c7.996-21.107,17.419-41.684,23.859-63.371c5.514-18.563,6.983-36.969-3.722-54.419c-7.63-12.437-17.817-20.557-33.488-18.914 c-4.41,0.463-8.323,2.19-12.059,4.405c-0.817,0.484-1.942,1.282-2.013,2.021c-0.138,1.465,1.496,1.439,2.491,1.834 c9.021,3.579,15.969,9.518,20.382,18.195c7.187,14.13-0.874,30.771-15.378,31.952c-5.998,0.488-11.331-1.34-15.479-5.518 c-8.973-9.032-13.907-19.645-11.393-32.757c2.194,0.212,2.02,1.879,1.683,3.224c-0.437,1.741-0.003,3.51-0.384,5.22 c0.302-1.282,0.022-2.602,0.17-3.894c6.445-1.095,7.358-0.451,9.568,6.716c1.83,3.533,3.183,7.313,5.603,10.537 c3.334,4.445,8.736,6.129,12.628,3.897c4.104-2.356,5.346-8.04,3.039-13.257c-3.007-6.805-8.299-11.039-15.033-13.719 c-2.435-0.969-4.823-1.27-7.023,0.593c-2.494,0.054-4.969-0.784-7.481-0.178c-2.589,0.404-1.398-3.53-3.821-3.325 c-2.542,0.735-5.182,1.233-7.609,2.243c-17.071,7.099-23.023,22.75-14.979,40.638c6.041,13.433,12.843,26.522,19.173,39.828 c1.408,2.958,3.045,5.891,3.479,9.242c2.288,6.543-3.828,6.708-6.944,9.149c-6.476-17.878-15.765-34.447-23.94-51.536 c-14.273-29.832,1.466-57.435,34.386-60.26c2.337-0.2,3.925-0.93,5.539-2.591c16.713-17.201,40.353-17.718,57.854-1.251 c6.486,6.104,11.382,13.308,13.966,21.938C355.627,334.427,355.047,337.592,356.832,339.874z"/><path fill="#01ABD6" d="M396.712,293.971c-4.378-5.307-5.999-12.17-10.003-17.7c-1.512-2.085-0.64-4.038,0.724-5.934 c6.609-9.196,5.127-16.176-5.502-20.903c-15.503-6.893-31.48-12.488-48.916-11.343c-10.532,0.691-20.818-0.895-31.042-3.168 c-0.465-0.508-0.998-0.856-1.729-0.781c-0.938,0.098-2.156,0.6-2.368-0.862c-0.15-1.04,0.567-2.188,1.482-2.391 c4.641-1.03,8.315-5.315,13.618-4.042c11.85,2.237,23.896,0.306,35.808,1.737c5.822,0.7,11.483,1.752,16.964,3.768 c6.695,2.461,13.489,4.718,20.007,7.598c7.754,3.428,13.544,8.786,15.558,17.604c1.16,5.079,0.213,9.623-2.182,13.922 c-1.224,2.197-1.13,3.848,0.055,5.963c7.521,13.422,13.515,27.376,15.152,42.916c1.001,9.495,1.27,18.93-1.001,28.26 c-2.485,10.204,1.639,17.727,9.254,23.978c1.799,1.476,3.644,2.924,5.269,4.581c5.534,5.646,5.81,11.721,0.612,17.744 c-2.047,2.373-4.42,4.585-7.005,6.337c-2.94,1.992-4.066,4.368-2.921,7.62c2.115,6.01,3.675,11.86-1.949,16.976 c-0.899,0.818-0.14,1.867,0.071,2.813c0.412,1.854,0.496,3.914-0.793,5.26c-4.985,5.199-4.592,11.77-5.078,18.162 c-0.072,0.949-0.631,1.863-0.964,2.795c-0.307,0.605-0.707,1.109-1.375,1.336c-0.438-0.018-0.835-0.162-1.188-0.424 c-0.755-0.682-1.155-1.688-2.046-2.248c-0.371-0.174-0.738-0.338-1.127-0.455c-1.065-0.564-3.192,1.15-3.281-1.504 c-0.149-0.275-0.106-0.514,0.128-0.719c1.704-4.996-0.271-10.215,0.927-15.238c0.057-1.51,1.021-2.459,2.18-3.131 c2.012-1.168,2.307-2.369,0.942-4.404c-2.174-3.244-1.23-5.988,2.067-7.928c2.445-1.438,3.298-3.083,2.316-6.126 c-2.864-8.88-1.967-16.763,7.2-21.794c0.576-0.315,1.079-0.775,1.586-1.203c4.819-4.064,4.925-5.26-0.098-8.998 c-7.905-5.884-13.046-13.456-15.578-23c-0.965-3.633-0.151-7.042,0.587-10.321c3.506-15.547,1.64-30.635-3.055-45.583 c-0.195-0.622-0.152-1.317-0.221-1.978c0.537-1.995,0.306-4.486,3.08-5.122C401.413,294.021,398.54,295.47,396.712,293.971z"/><path fill="#02ABD6" d="M303.11,604.748c-30.936-2.217-60.77-10.271-87.852-27.281c-3.403-2.137-6.376-4.809-8.918-7.928 c-1.922-2.357-3.354-4.971-3.566-8.088c-0.254-3.707,0.773-7.035,4.881-7.371c3.528-0.287,5.23,2.271,5.353,5.824 c0.125,3.656,3.063,5.375,5.503,7.27c9.703,7.531,20.822,12.395,32.314,16.342c19.409,6.668,39.118,11.908,59.97,10.35 c3.515-0.266,6.866-0.631,9.036-4.184c1.246-2.043,3.553-2.367,5.776-1.262c2.408,1.197,3.259,3.205,2.631,5.799 c-1.223,5.051-5.277,7.057-9.604,8.506C313.861,604.326,308.808,604.267,303.11,604.748z"/><path fill="#02ABD6" d="M309.193,585.042c-32.665-2.789-63.823-10.34-91.186-29.557c-4.386-3.08-8.127-6.959-9.354-12.488 c-0.833-3.752-0.292-7.352,4.039-8.318c4.339-0.971,5.788,2.029,6.208,5.82c0.459,4.146,3.885,6.055,6.776,8.123 c12.041,8.607,25.734,13.664,39.671,18.225c10.588,3.465,21.512,5.803,32.39,7.525c7.424,1.178,15.482,1.203,23.14-0.732 c1.663-0.422,2.968-1.256,3.978-2.746c2.022-2.982,4.853-3.777,7.617-1.346c2.669,2.352,2.173,5.314,0.202,8.057 c-2.711,3.771-6.726,5.279-11.018,6.199C317.577,584.679,313.441,585.091,309.193,585.042z"/><path fill="#01ABD6" d="M314.442,565.234c-30.495-1.895-59.162-10.006-85.572-25.557c-5.019-2.955-9.507-6.727-12.661-11.818 c-1.639-2.645-2.532-5.439-1.827-8.523c0.607-2.654,2.069-4.563,5.11-4.527c3.027,0.035,5.042,2.121,4.996,4.6 c-0.077,4.289,2.621,6.27,5.361,8.363c12.221,9.34,26.336,14.752,40.835,19.221c15.934,4.908,32.112,8.629,48.966,7.814 c4.394-0.211,8.909-0.045,11.859-4.672c1.38-2.164,4.186-1.953,6.338-0.557c2.257,1.461,2.725,3.768,1.735,6.172 c-1.959,4.768-6.084,6.855-10.72,8.1C324.156,565.113,319.308,565.07,314.442,565.234z"/><path fill="#02ACD6" d="M405.939,461.482c-4.998,5.873-11.882,7.734-19.066,8.367c-7.604,0.672-15.268,0.781-22.907,0.955 c-5.978,0.137-9.942,2.936-12.496,8.248c-6.769,14.084-11.375,29.02-17.259,43.449c-0.618,1.516-1.315,2.998-1.977,4.496 c-1.871-0.344-3.466-1.68-5.683,0.061c-1.479,1.16-3.842,0.596-3.685-2.385c5.877-16.406,11.583-32.877,18.886-48.73 c4.634-10.063,12.227-15.408,23.511-15.313c4.821,0.041,9.646-0.434,14.469-0.473c6.412-0.053,12.551-1.064,18.183-4.314 c2.147-1.469,4.541-2.357,7.048-2.982c1.417,0.582,1.559,2.439,2.999,3l0,0C409.394,458.494,405.805,459.318,405.939,461.482z"/><path fill="#01ABD7" d="M276.825,426.884c7.476,23.652,6.693,47.521,1.735,71.465c-1.952,9.428-4.628,18.674-7.656,27.814 c-0.313,0.945-0.639,1.887-0.993,2.818c-1.212,3.174-3.265,5.238-6.845,3.91c-3.272-1.215-3.684-3.939-2.76-7.021 c2.002-6.672,4.104-13.314,5.955-20.029c5.355-19.432,7.42-39.16,4.671-59.225c-0.719-5.244-1.998-10.412-3.019-15.615 c-0.476-0.777-0.584-2.047,0.167-2.127C271.091,428.548,273.558,425.908,276.825,426.884z"/><path fill="#02ABD7" d="M244.076,479.875c0.933,0.322,1.858,0.9,2.799,0.924c3.221,0.08,3.783,1.564,2.376,4.15 c-0.508,0.934-1.176,1.875,0.191,2.418c1.487,0.588,2.305-0.609,2.373-1.77c0.126-2.129,0.354-4.449-0.329-6.389 c-1.208-3.424,0.768-6.291,0.184-9.539c2.473,0.4-0.41,4.477,3.259,3.199c0.315,7.787-2.622,15.006-4.152,22.447 c-1.633,7.943-3.646,15.854-6.435,23.521c-1.201,3.307-2.936,5.959-6.842,4.814c-3.934-1.152-4.159-4.26-2.94-7.678 C238.753,504.212,240.758,491.871,244.076,479.875z"/><path fill="#02ABD6" d="M306.881,484.82c1.488,1.049,1.076,2.199,0.205,3.402c-2.103,2.896-2.086,6.045-1.333,9.404 c0.962,4.281,1.91,4.688,6.23,2.225c-3.422,12.422-6.836,24.844-10.269,37.264c-0.913,3.305-3.184,4.662-6.414,3.773 c-3.436-0.943-4.07-3.719-3.302-6.748c1.913-7.529,3.772-15.088,6.077-22.506C300.867,502.654,303.09,493.474,306.881,484.82z"/><path fill="#02ABD7" d="M294.04,614.021c-2.908,6.307-8.981,6.449-14.379,6.439c-9.07-0.014-18.039-1.602-26.64-4.752 c0.271-3.363,0.075-6.73,0.012-10.094c8.641,2.049,17.202,4.576,26.199,4.531c2.602-0.014,5.085,0.049,7.309-2.121 c2.108-2.059,4.766-2.086,6.796,0.643C293.209,610.5,295.438,612.021,294.04,614.021z"/><path fill="#03ABD6" d="M244.922,612.875c-7.229-2.119-13.773-5.549-19.418-10.535c-2.787-2.461-5.03-5.4-4.385-9.49 c0.396-2.516,1.854-4.297,4.478-4.678c2.175-0.316,4.433,0.566,4.87,2.586c1.128,5.213,5.414,6.859,9.265,8.934 c3.624,1.947,7.493,3.441,11.254,5.137c1.076,1.117,1.29,2.496,0.269,3.563c-1.686,1.76-2.742-1.338-4.628-0.682 C244.541,608.716,248.635,612.244,244.922,612.875z"/><path fill="#15B1D8" d="M322.867,524.673c2.81,2.525,3.052,2.57,4.687-0.354c0.788-1.41,1.425-0.914,2.142-0.191 c0.898,0.906,1.698,1.908,2.539,2.869c-1.105,3.686-1.863,7.512-4.277,10.672c-3.471,1.023-6.645,0.625-9.363-1.949 C320.019,532.039,321.443,528.357,322.867,524.673z"/><path fill="#15B0D8" d="M312.978,226.846c-0.469,0.857-0.846,1.857-2.172,1.283c-0.72-0.313-2.081-0.871-2.096-0.839 c-1.979,4.368-7.311,2.789-10.404,5.415c1.111,1.518,3.871-0.679,3.667,2.218c-6.993-0.06-13.986-0.12-20.979-0.18 c1.213-1.233,2.896-1.173,4.208-0.813c6.09,1.674,8.687-4.337,13.274-5.929c0.501-0.173,0.386-2.122,0.558-3.248 C303.719,225.204,308.435,225.451,312.978,226.846z"/><path fill="#13AFD8" d="M244.922,612.875c0.813-0.4,0.614-1.125,0.46-1.734c-0.498-1.973-1.235-4.326,0.751-5.502 c2.041-1.205,2.587,2.006,4.262,2.484c1.02-1.002,0.408-2.219,0.591-3.295c0.804-0.051,1.54,0.07,2.047,0.789 c-0.64,3.584,2.396,3.123,4.745,3.967c-3.463,0.9-3.899,3.66-4.757,6.125C250.256,614.953,247.396,614.464,244.922,612.875z"/><path fill="#0AADD5" d="M318.593,535.72c3.121,0.65,6.242,1.301,9.362,1.949c-0.211,0.246-0.583,0.475-0.607,0.738 c-0.256,2.646-0.403,5.387-3.592,6.285c-1.843,0.52-3.635,0.205-4.981-1.295C316.543,540.917,317.043,538.32,318.593,535.72z"/><path fill="#16B1D8" d="M276.825,426.884c-2.971,1.373-5.94,2.744-8.91,4.117c-1.168-1.533-1.453-3.369-1.788-5.188 c1.208-1.758,1.569-3.996,4.716-4.131c2.571-0.109,1.208-3.409,2.229-5.02c1.232,1.854,2.076,3.843,2.082,6.116 c-0.288,0.93,0.215,1.531,0.858,2.074C276.742,425.345,276.962,426.042,276.825,426.884z"/><path fill="#11B0D9" d="M174.848,360.861c-2.058-2.333-5.354-3.248-6.842-6.336c-0.688-1.429-0.91-2.389,0.306-3.394 c0.474-0.391,1.199-0.941,1.646-0.818c1.859,0.512-0.668,2.441,0.961,3.186c1.84,0.115,1.819-2.128,3.194-2.643 C175.117,354.135,175.093,357.49,174.848,360.861z"/><path fill="#17B1D7" d="M396.712,293.971c2.713,1.195,1.941-1.726,3.3-2.877c0.966,2.702,2.575,4.626,5.94,4.855 c-4.61-0.771-3.092,4.713-6.151,5.208C398.771,298.762,397.741,296.366,396.712,293.971z"/><path fill="#02ABD7" d="M251.003,461.804c-7.989,3.131-9.375,2.783-11.021-2.768C243.655,459.958,247.329,460.882,251.003,461.804 z"/><path fill="#07ACD3" d="M214.6,455.998c5.271,1.33,9.663,4.092,13.263,8.146C222.918,462.281,218.202,460.046,214.6,455.998z"/><path fill="#02ADD0" d="M275.979,332.877c0,2.244,0,4.488,0,6.731c-1.895-3.418,0.171-7.374-1.918-10.71 c-0.544-1.347,0.736-3.152-1.053-4.186c1.165-0.786,2.352-1.739,2.271,0.868c-0.032,1.071,0.869,1.205,1.7,1.296 C278.214,329.139,277.487,331.073,275.979,332.877z"/><path fill="#08ACD6" d="M401.871,435.625c0.112,4.566,0.153,9.135,0.384,13.697c0.06,1.182-0.423,1.41-1.311,1.541 C401.221,445.781,400.406,440.632,401.871,435.625z"/><path fill="#02ABD7" d="M239.864,468.908c3.852,0.922,5.669-1.797,7.483-4.699c1.724,3.48-1.561,4.557-2.359,6.637 C243.475,469.683,241.251,470.4,239.864,468.908z"/><path fill="#08ACD6" d="M404.962,452.861c-1.546,2.895-4.556,2.328-7.048,2.982c0.968-1.422,1.936-2.842,2.902-4.262 C401.599,453.951,404.526,449.375,404.962,452.861z"/><path fill="#02ABD7" d="M254.981,470.859c-1-2.932-2-5.863-3-8.795C255.941,463.988,255.219,467.505,254.981,470.859z"/><path fill="#08ACD6" d="M405.939,461.482c-1.595-2.689,2.515-3.328,2.021-5.621c0.624-0.328,1.247-0.654,1.871-0.982 C409.351,457.56,408.196,459.845,405.939,461.482z"/><path fill="#07ACD3" d="M227.96,453.867c-3.825-0.865-6.504-2.414-4.153-6.963C222.406,450.884,226.365,451.671,227.96,453.867z"/><path fill="#1CB2D7" d="M356.832,339.874c-2.703-1.938-2.088-5.117-2.901-7.761C356.158,334.228,356.224,337.152,356.832,339.874z"/><path fill="#02ABD7" d="M237.983,465.861c0.321,0.936,0.643,1.873,0.962,2.807c-1.766-0.328-3.556-0.59-5.018-1.777 C235.192,466.203,236.503,465.701,237.983,465.861L237.983,465.861z"/><path fill="#03ADCC" d="M294.04,614.021c-0.159-1.084,0.208-2.371-1.14-3c-2.898-1.352-0.289-1.678,0.437-2.354 C295.268,610.228,295.596,612.001,294.04,614.021z"/><path fill="#07ACD3" d="M234.704,456.878c-1.68,0.27-4.024,1.887-3.727-1.844C232.277,455.535,233.849,455.482,234.704,456.878z"/><path fill="#02ABD7" d="M227.777,464.054c1.734-0.043,3.931-1.008,4.115,2.055C230.375,465.714,228.848,465.343,227.777,464.054z"/><path fill="#01ABD7" d="M276.012,424.853c-0.772-0.137-2.052-0.061-2.214-0.449c-0.363-0.873,0.632-1.275,1.354-1.625 C275.439,423.47,275.726,424.162,276.012,424.853z"/><path fill="#02ABD7" d="M237.982,465.859c-0.619-1-0.619-1.998,0-2.998c1.226,0.656,2.382,1.469,1.719,3.047 c-0.313,0.738-1.133,0.082-1.719-0.047V465.859z"/><path fill="#02ABD7" d="M235.859,461.835c0.377-0.576,0.598-0.912,0.817-1.248c0.394,0.441,0.825,0.859,1.145,1.352 c0.051,0.076,0.75,1.025-0.307,0.824C236.975,462.662,236.501,462.208,235.859,461.835z"/><path fill="#05ACD7" d="M283.968,327.876c0.031,4.327,0.062,8.653,0.093,12.98c-0.313-0.374-0.936-0.79-0.891-1.114 c0.514-3.725-0.81-5.77-4.801-5.369c-1.288,0.13-1.505-1.152-2.391-1.496c-0.354-2.115,0.669-4,1.001-6 C279.57,325.386,281.881,325.849,283.968,327.876z"/><path fill="#03ABCB" d="M308.09,234.626c2.156-0.952,3.411-0.816,4.883-0.446C311.7,235.451,310.399,234.732,308.09,234.626z"/><path fill="#08ACD6" d="M407.961,455.861c-1.967-0.033-2.275-1.725-2.999-3C408.195,451.626,406.654,455.167,407.961,455.861z"/><path fill="#01ABCE" d="M384.218,463.042c2.519,0,5.036,0,7.555,0c0.004,0.164,0.008,0.328,0.013,0.494c-2.533,0-5.067,0-7.604,0 C384.193,463.373,384.205,463.208,384.218,463.042z"/><path fill="#03AAD5" d="M326.74,533.113c0.078,0.729-0.157,1.301-0.915,1.475c-1.003,0.23-1.603-0.289-1.651-1.24 c-0.035-0.688,0.408-1.258,1.182-1.281C326.048,532.042,326.622,532.31,326.74,533.113z"/><path fill="#07AED1" d="M330.069,529.009c-0.668,0.551-1.074,1.023-1.587,1.232c-0.169,0.066-0.615-0.553-0.936-0.855 c0.406-0.418,0.765-0.924,1.251-1.201C328.955,528.093,329.452,528.595,330.069,529.009z"/><path fill="#06ADD5" d="M297.378,231.899c-0.465,0.418-0.87,0.983-1.417,1.221c-0.67,0.293-0.892-0.357-0.614-0.767 c0.332-0.49,0.938-0.799,1.451-1.146C296.819,231.193,297.11,231.577,297.378,231.899z"/></g></g></svg>