<svg xmlns="http://www.w3.org/2000/svg" xmlns:xlink="http://www.w3.org/1999/xlink" width="1132.858" height="338.958" x="0" y="0" enable-background="new 0 0 1132.858 338.958" version="1.1" viewBox="0 0 1132.858 338.958" xml:space="preserve"><g id="Layer_2" display="none"><rect width="1210.439" height="368.981" x="-27.88" y="-10.9" fill="#F94E4E" display="inline"/></g><g id="Layer_1"><g><path fill="#3F8796" fill-rule="evenodd" d="M798.9,1c0.951,1.869,3.019,0.664,4.43,1.622 c1.252,0.85,3.403,1.668,2.899,2.941c-1.485,3.755-0.168,7.914,0.428,10.855c1.456,7.193-2.244,13.634-0.916,20.658 c1.31,6.931,0.996,14.321,0.676,21.246c-0.428,9.257,2.132,18.782-1.426,27.878c-0.296,0.759-0.211,1.678-1.344,1.722 c-0.971,0.037-1.39-0.502-1.772-1.37c-1.19-2.695-1.791-5.818-0.829-8.271c2.726-6.941-0.728-12.57-4.576-16.808 c-4.254-4.683-5.389-10.498-8.393-15.54c-2.81-4.719-5.207-9.489-8.751-13.89c-2.716-3.373-4.608-7.683-8.589-9.591 c-5.706-2.736-8.781-8.492-14.032-11.426c-7.259-4.056-15.511-5.354-23.502-3.673c-8.433,1.772-16.808,1.528-25.238,1.697 c-3.84,0.077-7.492,1.289-11.23,1.705c-4.799,0.533-5.625,4.217-7.267,7.444c-0.605,1.189,0.125,2.095,0.931,2.471 c4.291,2.005,2.503,4.776,0.893,7.316c-1.277,2.016-2.067,3.78-0.191,5.82c1.167,1.271,0.972,2.73,0.346,4.198 c-1.635,3.834,0.891,7.457,0.607,11.275c-0.147,1.997,4.156-0.302,3.472,2.486c-0.386,1.569-2.244,2.765-3.394,4.167 c-0.184,0.223-0.278,0.86-0.166,0.935c4.683,3.117-0.043,6.184-0.116,9.248c-0.086,3.628,1.841,7.12,0.411,10.847 c-0.68,1.771,0.682,2.632,2.347,3.078c4.017,1.077,4.512,2.98,1.205,5.669c-3.24,2.635-4.012,5.655-1.796,9.439 c1.045,1.786-0.557,3.326-1.291,4.877c-1.133,2.394-0.774,4.717,2.014,4.824c11.789,0.454,23.687,0.401,34.58-4.83 c9.876-4.742,15.128-13.193,15.5-24.124c0.32-9.438,0.635-18.854,2.014-28.203c0.294-1.988,1.174-3.753,2.664-5.675 c2.087,3.316,2.949,6.434,2.013,10.002c-2.119,8.074-1.742,16.419-2.568,24.634c-0.394,3.922,0.419,7.89-0.877,11.832 c-0.507,1.541-0.924,3.722,0.268,5.318c3.037,4.067,2.502,8.388,1.765,13.03c-0.496,3.12-1.171,6.671,1.502,9.521 c0.357,0.382,0.435,1.326,0.247,1.875c-3.514,10.297,2.36,20.072,1.661,30.274c-0.356,5.198,0.851,10.507,1.417,15.759 c0.246,2.279-0.848,2.838-2.899,2.84c-2.281,0.001-3.72-0.76-3.092-3.182c2.179-8.409-1.33-16.026-5.05-22.629 c-2.957-5.248-6.29-10.713-10.156-15.368c-2.192-2.64-5.588-3.958-7.085-7.97c-1.208-3.241-6.186-4.364-9.121-5.104 c-7.354-1.852-14.946-4.328-22.896-2.257c-3.849,1.002-4.29,2.733-1.968,5.453c1.878,2.198,2.694,3.872-0.086,6.084 c-1.346,1.073-2.408,2.808,1.257,2.442c2.692-0.27,3.757,2.944,1.989,5.074c-4.202,5.064-4.208,5.071,1.069,9.389 c1.831,1.5,1.011,2.017-0.651,3.053c-5.123,3.194-5.69,6.963-1.954,11.942c0.976,1.3,0.515,2.385-0.257,3.079 c-2.797,2.512-2.902,6.056-1.854,8.726c1.71,4.348-1.532,8.99,1.567,13.128c0.959,1.279-1.104,2.524-1.943,3.712 c-1.924,2.723-3.185,5.324-0.074,8.298c1.745,1.666,0.034,3.563-0.886,5.068c-1.419,2.32-2.9,4.115-0.505,7.042 c1.546,1.892-0.458,4.721-0.569,7.186c-0.15,3.351-3.082,2.708-5.357,2.802c-1.348,0.056-2.474,0.659-3.562,2.112 c3.993,2.194,8.708,1.918,12.218,1.419c18.646-2.65,37.632-1.088,56.189-5.996c9.374-2.48,18.661-4.858,27.754-8.271 c8.96-3.362,13.53-11.132,18.565-18.096c6.714-9.285,10.38-19.984,11.452-31.642c0.878-9.551,2.622-18.993,1.506-28.664 c-0.148-1.294-0.408-4.047,2.527-3.996c2.919,0.052,2.923,2.233,2.916,4.258c-0.011,2.977-0.902,6.237-0.439,8.845 c1.062,5.981-2.881,11.19-1.555,17.051c1.102,4.866-0.524,9.791-0.866,14.623c-0.612,8.664,1.628,16.92,1.778,25.396 c0.037,2.117,2.959,3.304,2.737,3.597c-2.97,3.921,2.669,7.99-0.766,12.309c-2.65,3.331-0.069,8.177-0.013,12.325 c0.086,6.223,0.566,6.466-5.267,5.509c-2.454-0.402-4.567-0.63-6.365,1.358c-0.616,0.682-1.498,1.113-2.227,0.712 c-7.77-4.277-15.809,0.002-23.749-0.599c-7.279-0.55-14.786-0.225-22.146-0.562c-20.808-0.95-41.611-0.697-62.421-0.66 c-11.105,0.02-22.282-0.813-33.302,0.152c-15.916,1.394-31.895-0.396-47.757,1.684c-3.008,0.395-6.18,0.39-6.863-3.816 c-0.225-1.377-1.486-1.17-2.395-1.102c-8.106,0.613-15.586-2.844-23.481-3.55c-2.313-0.206-4.775-0.804-6.935-0.272 c-8.716,2.141-17.625,0.79-26.368,1.835c-7.661,0.914-15.003,4.186-22.933,3.179c-12.103-1.537-24.422-1.407-36.305-4.616 c-4.007-1.082-7.881-0.333-11.812,0.364c-7.269,1.29-14.645,0.402-21.964,0.954c-6.094,0.459-11.508,3.417-17.898,3.334 c-13.159-0.169-26.234-0.904-39.347-1.875c-5.556-0.412-11.366,0.648-17.033,1.018c-6.347,0.414-12.517-0.623-18.774-0.379 c-6.857,0.267-13.657,0.374-20.482,1.718c-4.076,0.803-8.59-0.084-12.825-0.74c-7.927-1.231-15.82-1.112-23.757-0.387 c-6.1,0.559-12.174-0.6-18.372,0.155c-3.979,0.484-7.557,2.635-11.593,2.244c-1.954-0.189-5.229,1.004-5.192-2.036 c0.028-2.311,2.478-4.294,5.391-4.034c2.506,0.224,4.834,0.287,5.121-2.94c0.222-2.498,1.088-5.686-3.511-5.04 c-1.944,0.272-2.976-0.63-1.961-2.608c2.311-4.507,1.773-7.897-1.688-12.192c-7.745-9.614-12.691-21.074-18.633-31.864 c-0.78-1.417-1.537-3.073-1.563-4.631c-0.055-3.238-1.264-3.063-3.163-1.393c-3.412,3-5.145,1.582-5.824-2.696 c-1.321,0.98-2.134,1.866-3.142,2.288c-10.295,4.303-8.596,9.307-8.07,16.291c0.106,1.416,0.719,2.844,0.757,4.363 c0.189,7.56,1.808,8.579,8.305,5.325c-2.545,3.658-8.287,6.286-7.31,10.887c0.925,4.359-2.448,9.327,2.2,13.223 c3.224,2.7,4.716,7.392,9.315,8.62c4.733,1.266,9.615-0.139,14.986,1.041c-4.738,0.517-1.995,7.359-6.73,7.229 c-3.96-0.11-7.754,1.507-11.771,0.473c-9.535-2.454-19.328-2.348-29.075-2.479c-8.804-0.119-17.76-1.457-26.292,1.595 c-5.863,2.098-11.718,1.53-18.087,1.592c1.555-3.49,4.126-4.026,7.049-4.051c5.652-0.046,11.113-1.354,16.452-3.006 c5.512-1.705,7.794-4.985,7.848-10.676c0.083-8.813,0.453-17.65-0.003-26.44c-0.839-16.149-1.322-32.29-0.942-48.456 c0.023-0.979,0.087-2.628-0.381-2.841c-4.792-2.185-2.083-4.779-0.714-7.53c3.295-6.626,4.806-13.438,1.291-20.529 c-0.144-0.29-0.355-0.72-0.245-0.936c2.78-5.411,0.952-11.314,1.832-16.922c0.919-5.854,0.579-11.597-2.749-16.654 c-2.059-3.127-0.684-5.475,1.175-7.542c4.292-4.772,3.287-9.94,1.543-15.177c-0.376-1.13-1.146-2.349-0.539-3.292 c4.488-6.962-1.669-12.944-1.759-19.479c-0.018-1.257-1.771-1.991-3.317-2.565c-7.627-2.833-14.634-7.886-23.782-5.25 c2.118-5.541,2.127-5.568,6.694-5.782c5.459-0.257,10.847-0.994,16.261-1.732c3.858-0.525,7.912,0.566,12.067,0.299 c8.501-0.548,17.065-3.218,25.631-0.399c0.294,0.097,0.546,0.324,0.815,0.494c-3.436,5.051-3.085,7.137,1.968,10.867 c-2.948,3.079-6.626,6.094-2.418,10.743c-2.781,3.222-0.917,7.207-1.737,10.774c-0.798,3.474-1.912,7.105,1.063,10.32 c0.913,0.985,0.298,2.155-0.368,3.19c-1.383,2.148-1.984,4.215,0.646,5.998c1.063,0.721,0.722,1.892,0.152,2.666 c-2.53,3.438-0.689,7.268-1.154,10.871c-0.794,6.161-0.994,12.361-0.057,18.442c0.858,5.566-0.757,11.175,0.805,16.652 c0.18,0.63,0.572,1.484,0.32,1.913c-3.181,5.412,0.466,11.024-0.554,16.719c-0.879,4.912-0.945,10.447-0.194,15.652 c0.406,2.81,1.023,5.439-0.059,8.286c-0.468,1.231-0.525,3.189,1.037,4.041c1.569,0.853,2.787-0.445,4-1.299 c2.739-1.925,4.228-4.968,6.771-7.187c9.958-8.69,19.794-17.552,29.192-26.838c3.984-3.937,7.249-8.721,9.126-14.303 c2.67-7.938-4.837-18.96-13.328-19.17c-1.161-0.028-2.333,0.117-3.482,0.005c-1.352-0.132-1.992-1.302-2.301-2.369 c-0.559-1.929,1.305-1.566,2.213-1.832c4.97-1.455,10.068-1.884,15.238-1.703c7.081,0.249,14.187,0.938,21.179-0.931 c0.311-0.083,0.76-0.157,0.979-0.002c8.505,6.012,18.273-0.094,27.125,2.789c0.937,0.305,2.209-0.552,3.346-0.688 c0.783-0.094,1.604,0.126,2.408,0.207c-0.742,5.594,3.486,2.407,5.082,2.464c8.485,0.299,17.056-0.579,25.466,0.259 c8.372,0.833,16.268-1.21,24.345-2.112c4.358-0.487,6.179,1.798,7.198,5.131c1.188,3.878-0.4,8.553,3.807,11.622 c0.906,0.66-0.691,2.303-1.206,3.471c-1.642,3.729-3.031,7.53,0.376,10.999c1.374,1.399,0.48,2.467-0.146,3.435 c-1.75,2.7-1.399,5.62-1.587,8.609c-0.294,4.659,2.195,9.535-0.999,14.002c-0.935,1.307-0.418,2.784-0.128,4.264 c1.775,9.055-1.605,17.898-1.086,26.99c0.497,8.69-0.716,17.466-0.454,26.183c0.196,6.504,2.291,11.967,8.279,16.482 c8.919,6.724,18.429,4.715,27.911,4.236c3.111-0.156,6.257-0.321,9.378-0.379c9.408-0.175,13.082-4.103,14.055-13.3 c1.126-10.642-0.155-21.087-0.511-31.637c-0.314-9.326,0.027-18.863,0.457-28.296c0.085-1.875,0.678-4.069-2.725-3.899 c-2.104,0.105-2.243-1.53-1.271-3.111c0.43-0.698,1.098-1.247,1.554-1.932c1.211-1.822,3.975-3.452,2.401-5.892 c-1.896-2.939-3.432,1.645-5.527,0.814c-0.719-1.615-0.7-3.103,0.719-4.478c5.733-5.555,5.236-12.489,4.143-19.489 c-0.209-1.339,0.233-2.969-2.839-2.391c-2.553,0.481-1.544-2.659-0.38-3.655c4.973-4.253,3.838-9.895,3.938-15.308 c0.035-1.882-0.563-2.794-2.586-2.544c-1.121,0.138-2.019-0.632-2.203-1.606c-0.291-1.536,1.342-0.975,1.989-1.497 c2.467-1.989,2.073-5.308,2.8-7.867c1.764-6.209,1.686-12.752-0.575-19.068c-0.427-1.192-0.711-2.781-0.278-3.879 c2.558-6.504,0.859-12.602-0.475-19.087c-0.721-3.503,0.052-7.12-3.631-9.168c-2.75-1.528-5.8-2.326-8.952-2.731 c-4.088-0.524-8.163-1.162-12.238-1.794c-1.438-0.223-3.304-0.211-2.856-2.473c0.394-1.986,2.184-1.927,3.625-1.749 c7.598,0.942,15.255,0.522,22.841,1.035c6.233,0.422,12.107-2.319,18.367-0.99c5.172,1.098,10.507,1.125,15.812,0.786 c2.424-0.155,3.546,0.745,3.457,3.477c-0.11,3.341-0.329,6.564-1.418,9.773c-0.868,2.562-1.953,5.384,1.192,7.471 c1.716,1.139,0.169,2.364-0.221,3.399c-2.435,6.464-2.423,6.543,4.121,7.48c-0.013,0.324,0.096,0.843-0.063,0.945 c-6.546,4.226-6.015,9.778-3.991,16.377c1.012,3.296-0.504,7.314-0.551,11.01c-0.021,1.677-1.534,5.056,2.723,3.881 c0.98-0.271,1.152,0.139,1.172,0.819c0.046,1.47,0.445,3.189-1.137,4.079c-3.447,1.935-2.823,4.866-3.148,8.228 c-1.065,11.027,0.543,21.983,0.775,32.909c0.152,7.199-2.792,14.786,0.819,21.897c0.708,1.393-0.391,2.51-0.821,3.711 c-0.766,2.13-0.715,3.953,1.867,4.685c4.62,1.312,3.719,3.482,1.15,6.191c-3.509,3.701-3.39,5.556,0.604,8.847 c1.275,1.051,1.184,2.28,0.201,2.775c-1.252,0.632-1.404,1.779-2.079,2.645c-0.806,1.032-1.704,2.267-0.797,3.628 c0.903,1.354,2.397,1.063,3.637,0.655c1.267-0.414,2.74-1.401,3.55,0.055c0.921,1.653-0.22,3.339-1.605,4.207 c-3.139,1.967-5.002,4.707-5.839,8.217c-0.188,0.787-0.304,2.302-0.097,2.367c6.059,1.933,0.707,4.571,0.134,6.403 c-1.047,3.347-1.348,6.454,0.086,9.607c0.782,1.718,1.432,3.963,4.292,2.582c0.876-0.423,2-0.26,2.788,0.538 c4.597,4.656,10.484,4.784,16.309,4.199c7.083-0.711,13.638,2.43,20.652,2.2c4.267-0.141,7.601-2.034,10.958-4.143 c1.492-0.937,2.282-2.655,2.338-4.242c0.424-11.813,1.169-23.515-0.134-35.47c-0.979-8.987,0.049-18.501,0.38-27.776 c0.088-2.443,1.439-5.972-3.502-5.722c-1.059,0.054-1.809-1.435-0.82-2.709c0.61-0.786,1.363-1.461,1.989-2.237 c1.454-1.802,3.617-3.92,2.021-6.094c-1.646-2.246-3.148,1.709-5.199,1.089c-0.773-1.594-0.729-3.069,0.648-4.472 c5.859-5.97,5.043-13.233,3.902-20.545c-0.094-0.603,0.026-1.232-0.797-1.601c-3.439-1.537-3.564-1.688-1.112-4.665 c3.675-4.462,2.886-9.65,2.842-14.764c-0.028-3.343-4.928-0.456-4.749-3.666c0.106-1.907,4.943-0.619,3.199-4.647 c-0.753-1.739,1.374-4.005,1.913-6.216c1.452-5.954,0.025-11.516-0.922-17.171c-0.251-1.501-0.695-3.063-0.228-4.39 c2.229-6.327,1.63-12.298-0.783-18.533c-0.928-2.398,0.945-5.709-1.684-8.091c-2.858-2.59-6.473-3.272-10.012-3.905 c-3.74-0.669-7.636-0.531-11.335-1.338c-1.641-0.357-4.814-0.02-4.688-2.586c0.154-3.098,3.244-2.452,5.176-2.141 c7.439,1.199,14.948,0.337,22.362,0.976c6.071,0.523,11.735-2.452,17.867-1.045c5.144,1.18,10.496,1.166,15.801,0.884 c2.188-0.116,3.19,0.729,3.196,3.226c0.008,3.027-0.319,5.926-1.101,8.825c-0.831,3.084-2.335,6.121,1.05,8.951 c1.479,1.238-0.463,2.965-0.974,4.371c-1.784,4.906-1.112,5.913,4.573,5.947c0.16,1.233-0.51,2.416-1.309,2.839 c-4.877,2.59-4.805,6.471-3.351,10.98c1.537,4.765-0.13,9.635,0.213,14.44c0.127,1.776-1.884,5.326,2.938,4.239 c1.204-0.271,1.657,3.631,0.007,4.619c-4.048,2.422-3.646,5.625-3.313,9.673c0.292,3.559-2.129,7.322,0.591,10.828 c0.809,1.042,0.859,2.244,0.646,3.321c-1.598,8.044-0.01,16.135-0.408,24.08c-0.334,6.645,1.43,13.342-0.409,19.933 c-0.474,1.697-0.104,3.337,2.084,3.828c4.456,1.001,3.481,3.477,1.504,6.026c-2.488,3.208-5.736,6.242,0.413,9.154 c1.436,0.68,0.924,1.809-0.324,3.021c-1.553,1.507-3.879,3.456-2.423,5.918c1.082,1.831,3.22,0.775,4.959,0.09 c1.049-0.414,2.088,0.137,2.383,1.208c0.396,1.438-0.528,2.775-1.531,3.401c-3.276,2.045-5.362,4.873-6.077,8.572 c-0.153,0.79-1.554,2.737,1.596,2.951c2.824,0.191,0.315,2.435-0.152,3.197c-2.619,4.27-3.677,8.457-0.779,13.022 c0.443,0.701,0.649,1.649,1.524,1.818c8.635,1.664,16.674,6.88,25.972,4.524c2.395-0.606,4.317,1.849,6.717,0.676 c1.095-0.535,1.073,0.682,0.979,1.056c-1.195,4.783,2.379,3.493,4.474,3.262c4.097-0.452,8.162-1.268,12.196-2.138 c1.644-0.354,3.331-1.454,3.776-3.025c0.776-2.739,2.427-4.107,4.981-4.972c1.649-0.559,2.577-1.94,2.748-3.804 c0.548-5.972-0.041-11.895-0.296-17.795c-0.232-5.387-5.511-11.459,0.237-17.015c1.725-1.667,1.428-4.688,0.355-6.645 c-1.72-3.14-0.977-5.914-0.176-8.963c1.552-5.908,3.33-11.85-0.074-17.798c-0.663-1.161-0.467-2.568,0.241-3.83 c1.041-1.856,0.747-3.512-0.957-4.834c-1.533-1.191-2.09-2.419-0.745-4.209c2.995-3.988,0.229-3.611-2.653-3.708 c-1.352-0.046-3.085,1.899-3.937-0.02c-0.825-1.86,0.668-4.111,2.022-4.685c7.615-3.228,5.236-9.81,5.582-15.475 c0.047-0.765-0.148-2.072-0.598-2.262c-5.884-2.492-2.763-5.343-0.557-8.385c2.256-3.112,1.975-7.001,0.619-9.975 c-1.101-2.415-1.003-4.071-0.514-6.427c1.258-6.064,3.508-12.287-0.877-18.166c-0.623-0.836-0.924-1.884-0.147-3.19 c5.104-8.586,4.749-17.462,1.081-26.449c-0.174-0.424-0.115-0.941-0.167-1.416c-0.979-8.943-6.231-12.962-15.159-11.75 c-3.439,0.467-6.456,0.808-9.954-1.759c-2.324-1.705-7.015-0.056-10.636-0.192c-1.314-0.05-3.869,1.246-3.729-1.567 c0.116-2.318,2.061-3.083,4.356-2.959c32.264,1.753,64.508-0.511,96.758-0.814c18.752-0.177,37.546-1.167,56.314-1.86 c8.905-0.329,17.712,1.222,26.568,0.268C790.196,2.79,792.199,2.351,793.9,1C795.567,1,797.233,1,798.9,1z M794.909,40.934 c0.019,0.33,0.04,0.66,0.053,0.99c0.049,1.268-0.329,3.159,1.542,2.967c1.437-0.147,3.376-0.363,4.228-1.92 c0.54-0.987,0.637-2.495-0.22-3.298c-1.516-1.424-2.057,0.973-3.226,1.138c-0.809,0.114-1.632,0.133-2.448,0.193 c-1.017-1.781,1.074-1.445,1.405-2.128c0.955-1.973,5.586-1.617,3.855-4.305c-0.954-1.482-4.392,0.554-6.366,1.937 c-1.309,0.917-3.104,2.012-2.596,3.755C791.69,42.158,793.749,39.9,794.909,40.934z M461.547,22.684 c4.066-3.147,9.962-3.456,13.192-8.363c-4.459,0.501-9.9,3.517-13.902,7.583c-0.835,0.23-1.736,1.229-1.45,1.54 C460.329,24.469,460.942,23.344,461.547,22.684z M742.836,115.042c1.835-1.75,4.028-3.349,2.601-6.604 c-1.351,0.916-2.671,1.813-3.991,2.709c-0.999,0.677-1.837,1.478-1.449,2.822c0.477,1.65,1.956,0.629,2.917,1.01 c0.116,3.287-2.959,4.174-4.633,6.101c-1.639,1.888-1.36,3.886,0.206,5.25c2.339,2.036,2.367-1.046,3.26-1.976 c1.123-1.172,1.969-2.605,2.988-3.882C747.005,117.628,746.662,115.734,742.836,115.042z M378.968,196.912 c0.331,1.302-0.755,2.946,0.774,3.921c1.973-0.043,0.389-3.219,2.726-2.754c0.801,3.2,2.37,4.354,5.933,3.753 c3.273-0.554,1.084-3.19,1.401-4.826c0.236-1.214,0.041-2.767-0.563-3.828c-0.843-1.482-3.499-2.613-3.733-0.74 c-0.578,4.616-4.542,2.96-6.619,4.554c-0.142-1.446,2.709-2.045,1.295-3.619c-1.085-1.208-2.296,0.641-3.546,0.62 c-1.788-0.028-2.434,1.053-2.921,2.62c-0.507,1.63-1.692,0.939-2.696,0.371c0.151-0.795,0.234-1.61,0.466-2.381 c1.96-6.53,7.279-9.609,13.428-7.636c1.855,0.596,2.649,0.207,3.184-1.669c0.486-1.706,2.073-3.503-0.909-4.287 c-2.675-0.704-1.851-2.177-0.979-3.68c0.919-1.585,2.013-3.073,2.875-4.687c1.404-2.624,1.677-7.409,0.455-7.868 c-5.063-1.904-1.243-3.612-0.058-4.506c1.369-1.033,1.16-1.644,0.548-2.761c-0.38-0.694-0.762-1.995-1.589-1.084 c-1.839,2.025-1.857-0.002-1.375-0.666c1.899-2.619,0.918-5.717,1.783-8.541c2.329-7.593,0.938-15.799,3.3-23.46 c0.28-0.909,0.522-2.065-0.687-2.533c-1.401-0.544-1.933,0.985-2.913,1.476c-0.294-0.352-0.59-0.702-0.885-1.054 c2.715-3.354,0.248-8.426,3.918-11.598c0.821-0.71,0.361-2.451-0.801-3.545c-1.284-1.21-1.157-2.732-1.032-4.507 c0.254-3.612,1.896-7.078,1.145-10.771c-0.351-1.722-0.969-4.489-2.957-3.214c-2.875,1.845-6.585,2.371-9.294,5.56 c2.217,0.525,3.912,0.941,5.472-0.423c1.01-0.885,1.734-1.237,2.845,0.03c1.452,1.658,0.13,2.725-0.845,3.106 c-5.067,1.98-7.078,7.651-11.98,9.686c-1.145,0.476-1.808,1.826-1.722,2.124c1,3.443-1.498,4.584-3.667,5.951 c-1.239,0.78-1.898,1.802-1.717,3.305c0.217,1.802,1.881,3.037,2.989,2.889c3.042-0.403,3.589,1.724,4.724,3.468 c-7.932,5.192-8.871,6.875-6.603,12.179c1.323-3.076,3.621-4.298,7.063-4.407c-1.281,1.627-2.811,2.729-3.104,4.094 c-1.074,5.021-3.431,9.353-5.792,13.816c-0.548,1.035-4.336,5.964,1.965,7.014c2.092,0.349,2.076,6.643,0.375,6.586 c-5.414-0.182-3.409,3.586-3.661,6.075c-0.401,3.948,0.578,7.971-0.626,11.892c-0.659,2.146,0.837,2.965,2.408,3.69 c1.318,0.61,2.533-2.687,3.638-0.343c0.73,1.548-1.881,2.283-2.066,3.329c-0.393,2.23-1.555,3.291-3.267,4.489 c-1.744,1.222-1.75,2.695,0.368,4.21c1.959,1.4,3.794,0.38,5.662,0.591c-1.739,2.801-3.478,5.604-5.217,8.405 c3.034-1.598,5.597-2.031,8.591-0.504c1.46,0.746,3.18,0.039,4.547-1.006c1.422,4.233-3.052,3.592-4.434,4.237 c-3.416,1.596-6.396,5.371-11.167,3.331c-1.572-0.672-3.074,1.181-3.284,2.885c-0.263,2.128,1.663,1.555,2.833,1.686 c5.187,0.577,10.168,0.31,14.25-3.599c0.709-0.679,2.36-2.298,2.489-0.505c0.291,4.051,2.722,1.987,4.41,2.123 c3.559,0.287,6.696-2.546,10.846-0.79c-1.248-2.583-2.295-4.418-3.042-6.368c-1.365-3.562-3.143-3.109-5.383-0.834 c-2.956,3-2.926,2.931-5.194-0.721c-0.424-0.683-1.562-0.922-2.373-1.36c-1.884-1.656-4.834-0.526-6.585-2.526 C373.606,198.453,377.581,199.588,378.968,196.912z M558.081,158.125c1.196-1.11,2.833-1.73,4.071-0.858 c1.36,0.959-2.052,1.647-0.443,3.34c4.18-1.53,7.789-4.361,11.77-6.483c1.596-0.851,3.568-1.278,3.415-3.639 c-0.049-0.757-0.321-1.958-0.807-2.148c-2.033-0.794-3.482,0.759-4.747,1.908c-2.117,1.924-5.356,5.059-6.846,4.27 c-4.272-2.263-5.313,0.813-7.242,2.85c-2.517,1.847-5.922,2.726-7.117,7.267C553.513,162.593,557.016,162.054,558.081,158.125z M222.874,210.04c0.356,0.247,0.712,0.495,1.068,0.742c1.125,2.366-1.653,2.54-2.213,3.952c-0.455,1.145-2.382,2.918,0.488,3.153 c7.018,0.577,13.864,3.136,21.347,1.448c-5.93-0.148-9.322-3.755-12.138-8.198c-0.164-0.259-0.943-0.126-1.437-0.176 c-0.322-0.968-2.125-0.488-1.922-1.969c1.637-1.42,0.172-2.314-0.746-2.787c-1.657-0.852-2.555,0.506-3.362,1.717 c-1.559-2.329,0.246-3.977,1.265-5.706c0.455-0.771,0.928-1.393,0.32-2.189c-0.609-0.797-1.34-0.432-2.17-0.236 c-1.523,0.357-2.891,0.882-3.706,2.251c-2.508,4.218-7.657,4.714-11.023,7.787c-0.674,0.616-2.861,2.325-3.901,0.604 c-1.177-1.947,1.08-2.934,2.403-3.514c6.172-2.71,10.299-8.128,15.803-11.729c1.536-1.006,3.78-2.12,3.902-5.643 c-10.486,4.908-19.63,10.29-24.941,20.457c-4.146,7.936-4.042,8.515,4.752,7.658c2.983-0.29,9.357,1.299,8.901-5.776 c-0.018-0.281,0.335-1.99,1.473-1.113c0.76,0.586,2.313,0.708,2.088,2.048c-0.108,0.641-2.071,1.058-0.494,1.959 c0.94,0.537,1.778-0.401,2.282-1.38c0.589-1.143,1.284-2.229,1.933-3.34L222.874,210.04z M477.569,87.703 c-0.247-0.275-0.494-0.551-0.742-0.827c-2.24-6.354-4.994,1.515-7.557-0.383c1.664-2.165,3.676-3.442,6.503-3.637 c1.379-0.096,2.71-0.871,4.064-1.339c-2.917-3.813,0.994-2.046,2.105-2.588c2.726-1.329,3.211-4.489,2.586-6.297 c-0.823-2.382-2.474,0.744-3.778,0.736c-3.12-0.02-4.499,2.247-6.366,4.046c-3.684,3.551-7.452,7.021-11.318,10.375 c-0.844,0.732-2.2,1.854-3.424,0.188c0.514-0.82,1.014-1.579,1.337-2.573c1.174-3.61,2.108-8.065,6.268-8.913 c2.55-0.52,4.549-1.52,6.631-2.699c2.95-1.668,4.938-5.029,8.91-4.923c1.131,0.03,1.136-1.023,1.118-1.842 c-0.017-0.791,0.074-2.01-1.037-1.881c-3.034,0.351-3.356-2.689-5.867-4.135c4.859,0.467,5.929-1.895,6.149-5.609 c0.256-4.319-3.105-1.966-4.858-2.784c1.219-2.321,1.243-4.965,3.199-6.728c1.218-1.098,2.083-2.615,1.183-3.962 c-1.266-1.893-2.469,0.584-3.815,0.567c-0.626-0.008-1.256,0.281-1.885,0.436c-0.037-0.309-0.005-0.609,0.099-0.902 c0.843-2.637,4.625-2.861,4.9-5.966c2.276-1.549-0.413-1.98-0.667-2.959c0.989-2.621,4.459-5.413,1.858-7.856 c-1.684-1.583-4.18,1.729-6.264,2.946c-8.723-1.406-13.833,4.632-19.472,9.518c-0.781,0.677-0.806,1.846-0.192,2.748 c0.49,0.721,1.377,0.397,1.64-0.11c1.981-3.813,7.075-3.895,9.075-7.804c1.124-2.195,3.339-3.132,5.94-2.453 c-3.628,3.367-7.259,6.734-10.888,10.102c-0.771,0.064-1.17,0.553-1.004,1.241c0.058,0.241,0.733,0.438,1.141,0.471 c0.942,0.077,1.895,0.042,2.842,0.053c-0.719,2.799-4.556,0.263-4.197,1.357c1.617,4.927-3.757,4.172-4.847,6.698 c-1.318,2.233-1.268,4.462,0.016,6.689c3.511-0.192,4.98-3.255,7.097-5.272c2.731-2.604,4.974-5.749,8.937-6.667 c0.302,0.405,0.604,0.811,0.905,1.216c-1.445,1.069-2.911,2.112-4.328,3.216c-1.013,0.789-2.612,1.319-2.417,2.883 c0.23,1.836,2.516,0.398,3.454,1.542c-13.567,9.249-13.567,9.249-13.368,15.094c1.582-0.359,2.078-2.585,4.527-2.354 c-3.211,2.762-0.429,3.818,1.106,5.258c-5.975,3.96-7.397,8.033-5.72,16.366c0.587,0.688,1.719,1.418,1.67,2.059 c-0.343,4.551,2.231,2.183,4.851,0.74c-2.852,5.04-8.679,6.964-7.406,12.9c2.642-0.376,4.432-1.604,5.938-3.548 c1.103-1.423,2.768-3.751,3.892-3.594c5.937,0.829,9.312-2.985,13.156-6.211c1.565-1.314,4.754-2.224,3.136-4.546 C481.314,84.243,479.085,86.613,477.569,87.703z M290.076,177.102c-0.181-0.199-0.374-0.386-0.579-0.561 c-0.435-3.267-0.601-6.949-5.142-2.779c-0.456,0.418-1.558,0.131-2.363,0.176c-5.293-1.808-5.37,4.407-8.803,5.458 c4.584,0.633,5.231-4.742,8.873-5.551c-1.093,4.308-0.7,9.115-6.337,11.351c-1.882,0.747-4.943,4.299-0.729,7.342 c1.08,0.78,1.531,2.494,2.155,3.833c1.75,3.755,3.641,3.513,7.132,0.665c1.908-1.557,3.043-6.661,7.374-3.264 c0.354,1.83-3.074,0.711-2.17,3.061c3.549,0.378,5.302-2.832,7.945-4.23c0.985-0.521,0.059-1.465-0.531-1.977 c-0.477-0.414-1.087-0.771-1.65,0.049c-0.473,0.689,0.022,3.028-1.814,1.506c-1.051-0.871-0.684-2.29,0.704-3.309 c1.005-0.738,3.179-1.31,1.977-3.212C294.254,182.713,291.38,180.463,290.076,177.102z M559.788,176.839 c0.274,0.251,0.547,0.501,0.821,0.752c1.426,2.753,1.416,2.736,4.203,1.114c2.542-1.48,4.79-3.867,8.204-2.75 c-1.424,1.93-2.656,3.935-2.583,6.494c1.649-0.391,2.936-1.329,4.052-2.469c0.969-0.988,2.924-1.756,2.099-3.426 c-0.621-1.257-2.404-0.305-3.644-0.535c-0.214-2.873,0.739-5.036,3.397-6.517c0.832-0.463,1.848-1.734,1.047-2.942 c-0.799-1.204-1.816-0.272-2.53,0.298c-1.642,1.313-3.045,0.624-4.889-0.536c2.85-0.478,2.894-3.486,5.058-4.526 c1.749-0.841,3.186-2.806,2.107-4.267c-1.04-1.41-3.432-0.736-4.968,0.427c-6.443,4.875-15.711,5.708-19.824,13.976 c-0.688,1.384-2.136,10.78-1.167,10.864c3.384,0.292,5.499-1.939,7.218-4.596C558.733,177.667,559.315,177.288,559.788,176.839z M464.38,180.417c0.294,0.302,0.588,0.604,0.883,0.905c5.113-0.388,8.37-5.5,13.684-5.375c0.952,1.972-2.725,3.747-0.215,5.927 c2.168-1.203,5.074-2.556,4.931-4.847c-0.17-2.724-3.344,0.541-4.749-1.049c1.728-2.423,2.421-5.584,5.334-7.186 c0.67-0.368,0.849-1.446,0.26-2.226c-0.732-0.972-1.412-0.263-2.096,0.164c-1.691,1.055-3.356,1.269-4.967-0.276 c2.345-1.447,3.419-4.197,5.886-5.632c0.765-0.445,1.455-2.228,1.162-3.02c-0.561-1.513-2.285-0.829-3.486-0.688 c-0.927,0.11-1.861,0.665-2.667,1.207c-3.939,2.651-8.52,4.186-12.483,6.424c-3.465,1.958-7.41,6.062-7.814,11.006 C457.398,183.654,457.666,183.676,464.38,180.417z M557.605,36.708c0.339,0.297,0.678,0.596,1.016,0.894 c-1.124,1.702-4.323,2.05-3.745,4.732c0.861,3.998-1.917,5.255-4.397,7.014c-2.734,1.939-2.178,5.468-0.898,7.037 c1.666,2.04,3.233-1.013,4.559-2.169c2.109-1.836,3.939-3.991,5.919-5.979c1.889-1.897,3.942-3.493,6.859-3.228 c-0.783,1.725-2.166,2.962-3.714,3.867c-1.319,0.772-2.908,1.414-3.103,2.949c-0.29,2.292,2.83,0.283,3.342,2.02 c-12.891,7.771-12.891,7.771-13.828,15.503c4.129-4.995,3.423,1.174,5.253,1.897c1.447,0.572-0.932,0.767-1.3,1.564 c-1.785,3.877-5.867,6.875-4.454,11.925c0.334,1.195,0.34,3.009,1.908,3.104c1.473,0.089,2.506-0.808,2.927-2.655 c1.217-5.327,3.944-9.248,10.04-9.917c1.494-0.164,2.95-1.448,4.25-2.444c2.218-1.696,4.098-3.925,7.25-3.873 c1.039,0.017,1.427-0.679,1.408-1.623c-0.019-0.979,0.104-2.326-1.286-2.218c-2.966,0.232-3.167-2.568-5.646-4.202 c3.565,0.354,5.619-0.499,5.855-3.367c0.128-1.55,1.032-3.686-0.643-4.628c-2.139-1.203-3.407,1.298-5.119,2.041 c-0.297,0.129-0.651,0.128-0.979,0.187c-0.294-0.255-0.587-0.511-0.881-0.766c3.566-1.927,4.146-6.063,6.54-8.862 c0.873-1.019,1.759-2.377,0.962-3.59c-1.276-1.94-2.49,0.694-3.841,0.384c-0.649-0.352-1.18-1.363-0.787-1.55 c5.002-2.392,3.09-7.855,5.233-11.475c0.834-1.407,1.214-3.388,0.245-4.166c-1.266-1.019-3.123-0.042-4.261,1.169 c-1.384,1.474-2.988,1.93-4.92,1.824c-7.71-0.42-11.937,5.55-17.206,9.551c-0.648,0.492-1.019,1.904-0.116,2.73 c1.511,1.384,2.082-0.313,2.524-1.138C553.7,37.15,555.562,36.822,557.605,36.708z M225.01,101.972 c-0.337-1.107-1.317-0.836-2.103-0.979c0.523-1.446,1.903-3.214-1.375-3.01c-1.92,0.12-3.51,0.891-4.897,2.078 c-4.585,3.93-9.121,7.918-13.676,11.883c-1.367,0.715-0.814,1.928-0.78,3.006c0.734,2.819,2.952-1.471,4.01,1.429 c-5.5,2.355-1.207,8.966-5.153,12.541c-0.526,0.478-1.415,1.743-0.496,2.624c1.097,1.051,2.124,0.126,2.999-0.624 c0.875-0.75,1.762-1.509,2.519-2.375c2.589-2.957,5.139-5.873,8.982-1.575c-0.417,2.147-1.078,4.357-3.272,5.133 c-4.777,1.688-6.394,6.988-10.852,9.069c-1.743,0.814-0.886,2.978-0.832,4.552c0.049,1.405,1.308,1.238,2.245,1.303 c1.842,0.128,1.982-1.49,2.464-2.624c1.772-4.169,6.095-6.061,8.487-9.562c1.521-2.226,5.821-3.962,2.57-7.874 c2.178-1.813,4.296-3.705,6.556-5.409c1.462-1.103,3.657-2.288,2.112-4.092c-1.297-1.516-3.019-0.298-4.249,1.444 c-1.272,1.801-3.113,3.203-4.704,4.778c-0.271-0.302-0.543-0.604-0.814-0.905c1.734-2.903,2.864-5.842,6.045-8.158 C224.466,111.955,228.019,107.631,225.01,101.972z M654.866,66.965c-0.23-2.115,3.084-3.309,1.407-6.055 c-3.056,1.975-7.963,2.034-6.97,8.146c1.901-1.264,4.17-0.454,5.628-2.178c-0.19,0.79-0.164,2.106-0.604,2.286 c-3.62,1.482-3.262,5.351-4.948,7.962c-1.199,1.857,0.748,2.654,1.785,3.493c0.761,0.616,2.384,0.62,2.479-0.523 c0.342-4.131,2.866-3.121,5.364-2.664c1.407,0.257,1.396,0.126,1.336-1.808c-0.013-0.394,0.405-1.166,0.524-1.147 c4.738,0.766,6.503-3.911,9.473-5.878c4.313-2.858,8.939-4.425,13.463-6.484c1.711-0.778,3.233-1.722,3.444-3.683 c-3.616-1.937-5.955,1.606-9.075,2.468c-0.461-3.166,1.26-4.632,3.366-5.157c6.099-1.521,7.223-5.596,6.123-10.973 c-0.253-1.235,1.18-3.434-1.243-3.5c-1.921-0.052-3.335,1.317-3.411,3.544c-0.044,1.323,0.145,3.019-1.288,3.547 c-6.491,2.391-9.929,8.917-15.834,11.773C661.901,62.06,659.857,66.899,654.866,66.965z M673.312,153.304 c0.251,0.271,0.502,0.54,0.753,0.81c0.019,1.076-0.601,2.201,0.876,3.019c1.598,0.885,1.294,2.053-0.063,3.099 c-4.425,3.407-9.16,7.063-13.949,9.038c-4.345,1.791-5.935,5.988-9.95,7.397c-0.992,0.348-1.422,1.652-0.847,2.549 c1.02,1.588,2.173,0.027,2.924-0.407c2.083-1.209,3.898-2.516,6.404-3.279c4.188-1.276,7.802-4.53,11.442-6.817 c3.209-2.016,6.317-4.575,10.065-6.021c2.575,3.402-3.214,2.56-2.392,5.201c3.018-0.01,6.869,1.348,8.239-2.848 c0.901-2.76-1.776-2.985-3.84-3.091c1.597-2.501,2.554-4.978,1.751-8.173c-0.302-1.201,3.659-2.076,2.205-4.174 c-1.319-1.904-3.236,0.827-5.022,0.451c-0.778-0.164-1.604-0.103-2.407-0.144c2.001-0.867,3.783-1.812,5.545-3.002 c1.892-1.277,2.312-2.841,1.818-4.664c-0.514-1.899-2.399-2.077-4.038-2.195c-1.773-0.127-3.598-0.483-4.165,2.198 c-0.878,4.149-4.779,5.896-7.951,6.481c-8.647,1.593-13.399,8.186-19.274,13.39c-0.683,0.604-1.063,1.713-1.263,2.655 c-0.222,1.05,0.164,2.262,1.552,1.52C659.138,162.332,666.896,158.925,673.312,153.304z M223.107,43.033 c-4.582,2.218-7.195,6.849-12.124,9.054c-3.438,1.538-7.884,4.23-8.191,9.312c1.327,1.401,2.658-1.367,4.137,0.536 c-2.771,1.162-4.298,3.239-5.315,6.272c3.716-2.57,7.296-4.226,10.935-0.519c-1.595,3.124-3.68-0.947-5.483,0.329 c-0.26,1.891,1.468,4.175-1.311,5.561c-1.947,0.971-3.167,2.593-2.468,5.031c4.387-2.676,8.583-5.234,13.284-8.101 c-1.882,3.981-4.6,5.983-7.118,8.383c2.68-0.901,5.359-1.803,8.039-2.704c-7.361,5.752-11.953,10.066-13.805,13.753 c2.851-0.168,17.146-10.583,17.873-13.021c0.044-0.147,0.177-0.371,0.124-0.431c-2.314-2.58,0.478-3.359,1.756-4.105 c2.438-1.426,1.81-3.629,1.281-5.246c-0.715-2.192-2.503,0.833-3.775-0.165l0.031,0.025c1.396-2.071-0.338-5.257,1.415-6.639 c3.191-2.513,3.648-3.284-0.583-5.111c-1.271-0.55-3.279-0.457-4.369-1.845c6.785-3.954,7.94-5.921,6.146-10.384 c1.95-1.714,1.316-4.28,1.922-6.406c0.537-1.886-1.044-3.382-2.97-2.165c-2.878,1.82-6.227,3.405-7.407,7.346 C221.044,40.995,221.044,40.995,223.107,43.033z M470.406,150.493c0.208,0.211,0.43,0.41,0.664,0.594 c0.753,0.946,2.241,1.172,2.396,0.228c0.588-3.587,3.599-4.117,5.972-5.705c2.902-1.944,5.682-4.422,3.865-8.986 c-2.339,1.572-4.238,3.511-7.293,2.595c8.002-8.387,8.526-9.856,8.002-18.59c-0.135-2.248-0.783-3.026-2.928-2.489 c-0.29-0.262-0.58-0.523-0.87-0.784c0.522-0.944,1.655-1.052,2.347-1.639c2.579-2.185,1.754-6.051-1.258-7.141 c-0.998-0.361-2.278-1.237-2.513-2.122c-0.398-1.502,1.185-1.938,2.307-2.633c3.32-2.054,2.448-5.803,1.352-7.927 c-1.079-2.088-3.073,0.688-4.593,1.604c-0.5,0.302-1.228,0.229-1.851,0.326c-1.344,0.117-2.687,0.234-4.03,0.351 c-0.324-0.057-0.685-0.236-0.968-0.154c-6.198,1.803-9.511,7.255-13.992,11.216c-0.874,0.771-0.411,2.43,0.321,3.228 c1.265,1.377,2.046-1.088,3.536-0.771c-0.34,1.106-0.657,2.141-0.975,3.175c-0.887,0.663-1.625,1.323,0.052,1.918 c0.664-0.09,1.328-0.18,1.993-0.27c0.345,0.147,0.689,0.295,1.034,0.443c0.257,1.561-1.243,1.789-2.017,2.46 c-1.688,1.465-4.236,2.43-1.258,5.114c2.642,2.379,3.43,0.223,4.731-1.503c3.154-4.181,7.879-3.667,12.4-3.942 c-2.457,0.789-4.334,2.862-5.714,4.323c-2.412,2.558-7.045,1.44-7.744,4.072c-0.846,3.183-3.189,4.804-4.494,7.295 c-0.915,1.746-3.491,4.881,1.896,4.765c1.26-0.027,3.643,0.448,3.973,2.298c0.321,1.799-1.83,2.052-2.953,2.923 c-1.168,0.906-2.371,1.768-3.51,2.708c-2.224,1.832-1.938,4.439-0.7,6.225c1.55,2.238,2.75-0.679,3.922-1.289 c2.961-1.54,4.499-5.093,7.923-6.388c1.043,2.797-3.233,3.088-2.19,5.6C468.666,152.119,469.341,150.779,470.406,150.493z M569.999,119.949c-2.621-0.111-3.682,2.548-5.984,3.259c-6.058,1.874-9.212,7.17-12.567,11.973 c-0.606,0.868-4.544,5.668,2.127,4.205c1.18-0.259,3.519,1.126,4.014,2.304c0.638,1.512-1.514,2.186-2.708,3.025 c-1.345,0.945-2.701,1.9-3.906,3.011c-1.903,1.755-1.584,4.283-0.55,5.923c1.518,2.406,2.774-0.527,3.916-1.124 c2.999-1.565,4.617-5.042,7.962-6.554c0.7,2.757-2.642,3.361-2.499,5.657c12.54-3.84,17.942-8.731,16.177-14.717 c-2.156,1.035-3.973,3.334-7.982,1.891c7.426-3.684,9.475-9.425,8.916-16.356c-0.114-1.415,0.714-3.114-0.635-4.196 c-1.591-1.276-2.57,1.58-4.277,1.087c0.279-1.926,1.601-2.545,2.92-3.295c3.005-1.707,2.794-5.188,1.628-6.998 c-1.631-2.529-2.776,1.411-4.546,1.68c-0.941,0.143-1.749,1.165-2.76,1.892c-0.197-1.537-0.742-2.584-1.88-3.488 c3.564,0.292,3.523,0.287,3.924-3.236c0.063-0.549,0.639-1.413,1.082-1.484c4.458-0.721,3.507-4.098,3.505-6.976 c-0.003-2.937-1.604-3.359-3.31-1.435c-1.823,2.058-4.122,2.168-6.192,1.876c-3.812-0.537-6.816,1.351-8.768,3.646 c-2.026,2.385-4.535,4.14-6.67,6.314c-1.416,1.442-2.016,2.183-1.021,4.02c1.529,2.826,2.491-1.08,3.818-0.208 c0.392,1.918-2.7,3.354-1.398,4.802c1.866,2.075,2.665-1.724,4.444-1.547c0.571,0.057,1.137,0.17,2.486,0.379 c-2.255,1.766-3.927,3.05-5.569,4.372c-1.032,0.832-3.184,0.974-2.273,3.093c0.438,1.017,1.167,2.345,2.058,2.637 c1.688,0.554,2.671-0.632,3.828-2.071c3.144-3.913,8.794-5.152,12.625-3.314L569.999,119.949z M322.276,85.122 c-7.024-0.58-12.366,2.871-18.19,6.275c-5.707,3.335-10.963,7.058-14.681,12.163c-4.134,5.677-9.722,9.788-14.174,15.075 c-1.812,2.152-2.617,3.383-1.354,5.852c2.089,4.084,4.16,8.189,5.983,12.396c2.83,6.528,6.052,12.976,8.011,19.774 c2.954,10.25,7.512,19.409,14.867,27.117c0.587,0.615,1.378,0.98,1.096,1.885c-2.055,6.567,2.371,11.617,5.343,15.95 c6.715,9.789,15.918,16.577,29.048,14.249c5.189-0.92,10.544-1.115,15.489-3.076c1.6-0.635,4.662-1.479,3.471-3.749 c-2.063-3.935-0.793-6.188,2.366-8.293c1.237-0.824,1.442-2.094,1.365-3.509c-0.69-12.656,0.007-25.332,1.341-37.854 c0.632-5.921-4.364-10.805-1.537-16.752c0.659-1.388,1.539-2.931,1.821-4.446c0.391-2.098,2.14-5.328-2.542-5.193 c-1.033,0.029-2.42,0.586-2.947-1.019c-0.626-1.904,1.233-1.995,2.061-2.868c0.953-1.004,2.679-1.049,2.878-3.055 c0.47-4.721,1.346-9.401,1.905-14.117c0.136-1.143,0.488-2.457-1.587-2.997c-4.287-1.114-4.776-2.72-1.468-6.07 c2.1-2.128,1.853-4.165,0.942-6.167c-1.814-3.988-4.638-6.792-9.314-7.802c-5.481-1.184-10.896-1.111-16.313-0.302 c-2.443,0.364-5.553,0.618-6.541-0.989C327.598,84.312,324.923,85.188,322.276,85.122z M222.597,159.778 c-7.183,4.398-14.205,8.09-18.971,14.875c-2.492,3.546-2.229,5.5,1.626,6.786c0.698,0.232,0.686,0.619,0.655,1.033 c-0.187,2.503,1.792,5.059-1.345,7.502c-2.051,1.597-2.263,5.709-0.179,7.139c1.892,1.298,4.481-1.668,6.876-2.461 c-1.928-3.632,2.23-3.524,3.003-3.476c4.623,0.297,6.817-3.835,11.737-4.518c-2.416-1.619-4.135,0.771-4.874-1.06 c-0.601-1.488,0.479-2.856,1.505-4.003c0.22-0.245,0.504-0.434,0.749-0.659c1.465-1.359,3.462-2.79,2.399-4.982 c-1.241-2.56-3.174,0.685-4.792-0.069c-0.227-0.105-0.395-0.338-0.601-0.521c1.074-0.884,2.315-1.163,3.623-1.503 c1.915-0.497,2.816-7.48,1.309-7.478C219.612,166.389,223.345,162.625,222.597,159.778z M682.465,206.052 c-3.286-1.308-5.974-1.85-8.102,0.047c-5.258,4.684-12.052,7.118-17.117,12.048c-1.789,1.741-3.349,0.642-4.648-0.88 c-1.275-1.494-0.361-2.722,0.939-3.146c5.311-1.733,8.718-6.358,13.816-8.59c5.549-2.431,10.559-6.113,15.742-9.348 c1.104-0.69,2.267-1.844,1.732-3.294c-0.642-1.743-2.188-0.693-3.414-0.681c-5.242,0.054-8.643,5.469-14.127,4.835 c-0.261-0.03-0.716,0.511-0.873,0.875c-1.215,2.824-3.819,4.183-6.274,5.388c-8.194,4.02-13.962,11.114-21.397,16.237 c8.149,0.438,16.115,0.622,24.061,0.317c2.187-0.084,7.859,2.954,5.415-4.086c-0.146-0.42,1.813-1.682,2.896-2.397 C674.645,211.044,678.223,208.78,682.465,206.052z M272.772,158.925c1.143-2.265-2.62-3.833,0.465-6.009 c1.603-1.132,4.605-0.527,4.821-3.9c-1.814,0.257-3.476-0.502-5.323,0.53c-4.831,2.701-10.234,4.534-12.895,10.089 c-0.596,1.246-2.677,2.202-1.542,3.708c1.238,1.645,2.873-0.116,3.907-0.765c1.199-0.752,1.975-2.584,3.598-1.158 c2.082,1.83,0.06,3.522-0.979,4.486c-4.036,3.738-4.183,7.145,0.272,10.465c0.768,0.572,0.423,2.92,2.142,1.725 c1.051-0.73,2.908-1.06,2.679-3.127c-0.189-1.708,0.038-4.053,2.096-3.805c5.679,0.687,9.137-3.131,13.499-5.836 c-1.482-1.36-2.716-2.333-2.118-5.072c0.447-2.042-1.56-5.681-3.535-6.928c-2.502-1.581-2.375,2.062-3.466,3.425 C275.717,157.602,274.439,157.967,272.772,158.925z M575.586,190.786c-3.096-1.232-3.281-2.462-0.376-4.054 c1.042-0.571,2.315-1.523,1.521-2.68c-0.785-1.143-2.922-0.291-3.279,0.207c-1.433,1.991-4.29,1.015-5.526,2.959 c-3.346,5.259-9.987,6.172-13.956,11.05c-3.093,3.8-7.184,10.281-4.841,14.212c2.389,4.009,6.803,1.607,10.351,1.368 c1.716-0.115,3.25-0.688,3.715-3.114c0.396-2.066,2.498-3.932,4.382-4.456c4.459-1.24,5.813-5.304,8.417-8.173 c1.948-2.145,0.72-3.093-1.838-3.174c-1.829-0.059-2.73,0.7-3.989,2.037c-3.537,3.755-7.498,7.12-11.4,10.515 c-0.899,0.782-2.172,0.646-3.138-0.341c-1.217-1.24-0.338-2.07,0.551-2.883c3.618-3.308,6.974-6.999,10.972-9.758 C569.522,192.865,571.7,189.893,575.586,190.786z M456.278,209.19c-1.839,4.978,1.809,5.819,4.924,5.334 c3.616-0.564,8.848,1.059,9.928-5.147c0.202-1.164,2.11-2.936,3.166-2.892c5.189,0.22,5.258-4.971,8.047-7.212 c0.97-0.778,2.904-2.805,0.705-3.97c-1.361-0.722-3.672-1.209-5.295,0.904c-3.151,4.104-7.31,7.183-11.232,10.51 c-1.367,1.157-2.339,1.81-3.708,0.469c-1.835-1.798,0.278-2.515,1.106-3.521c5.139-6.255,13.195-9.376,17.636-16.432 c0.705-1.12,3.314-1.611,2.244-3.185c-0.833-1.224-2.72,0.158-4.177,0.685c-5.291,1.911-9.044,6.21-13.504,9.24 C461.299,197.248,454.641,201.051,456.278,209.19z M685.438,120.19c-1.355-0.292-2.545-0.014-3.874,0.374 c-6.185,1.804-11.965,4.564-16.869,8.593c-6.007,4.933-15.339,7.646-13.789,18.366c0.235,1.625-0.37,4.008,0.51,4.763 c1.552,1.332,2.686-1.156,4.115-1.78c1.647-0.718,3.444-1.685,4.615-2.751c2.773-2.524,7.272-0.782,9.285-3.916 c2.754-4.285,6.247-6.402,11.384-6.18c0.729,0.031,3.739-0.053,2.629-2.385c-0.996-2.095,0.15-2.577,1.393-3.471 c0.943-0.68,2.877-1.172,1.436-2.898c-1.2-1.438-2.281-0.331-3.374,0.521c-7.313,5.689-16.203,9.032-23.005,15.521 c-1.569,1.496-3.818,1.719-5.394-0.02c-1.523-1.683-0.411-3.261,0.841-4.812c1.835-2.274,4.32-4.181,6.797-4.703 c8.218-1.73,13.51-8.19,20.501-11.824C683.83,122.967,685.153,121.917,685.438,120.19z M562.008,86.897 c1.904-3.083,4.39-3.812,7.293-4.19c0.897-0.117,3.687,0.285,2.832-1.885c-0.69-1.753-0.55-1.956,1.037-1.807 c4.568,0.427,3.549-3.468,4.389-5.799c0.348-0.963-0.498-2.208-1.663-1.356c-2.498,1.826-5.679,2.107-8.016,4.599 c-4.069,4.338-8.612,8.322-13.406,11.842c-1.605,1.178-3.219,1.821-2.401,3.781c1.048,2.511,2.352-1.306,4.004-0.043 c-1.86,1.988-3.543,3.973-5.428,5.743c-1.659,1.557-2.682,3.919-1.313,5.196c1.28,1.192,3.48-0.295,4.883-1.838 c1.552-1.707,3.583-4.814,4.917-4.576c7.105,1.269,10.042-4.95,14.929-7.503c1.101-0.574,2.359-2.014,1.475-3.263 c-1.021-1.443-2.348,0.167-3.397,0.621c-1.348,0.581-1.914,2.632-3.742,2.503c-0.88-1.805,2.683-2.621,0.657-3.953 C566.506,83.291,564.963,86.703,562.008,86.897z M291.604,216.965c3.47-0.143,7.072,0.256,10.314-1.066 c2.263-0.923,0.41-3.614,1.304-5.304c0.074-0.141,0.15-0.371,0.256-0.391c4.522-0.836,1.768-3.429,0.947-4.989 c-3.186-6.068-4.38-6.356-10.917-3.59c-0.591,0.25-1.28,0.279-1.928,0.383c-1.336,0.214-1.818,1.409-1.163,2.125 c2.503,2.738-0.625,2.783-1.682,3.336c-0.823,0.43-2.916,0.045-2.469,1.209c1.107,2.887-0.423,3.591-2.511,4.368 c-1.002,0.373-1.585,1.284-1.314,2.366c0.26,1.036,1.032,1.588,2.201,1.565C286.962,216.934,289.283,216.965,291.604,216.965z M685.823,172.151c-0.803-1.895-1.776-2.705-3.838-1.57c-2.449,1.348-4.933,2.915-7.599,3.533 c-9.095,2.109-15.35,8.756-22.653,13.706c-1.717,1.163-3.539,3.111-1.728,5.4c1.994,2.52,4.32,1.726,6.345-0.259 c7.095-6.953,16.421-10.295,24.751-15.243C683.418,176.344,684.191,174,685.823,172.151z M735.966,219.694 c9.909,0.09,19.418,1.046,28.899-0.343c5.411-0.792,12.068,1.68,15.174-5.329c-3.889-4.079-7.509-0.104-10.766,1.325 c-2.533,1.112-3.993,2.378-6.282-0.098c-1.091-1.179-2.94-1.402-4.671-1.289c-6.257,0.409-12.482,0.993-18.504,2.907 C738.464,217.298,737.006,217.54,735.966,219.694z M687.749,97.303c-5.884-0.863-11.488,0.951-14.021,3.03 c-6.348,5.208-13.675,8.456-20.315,12.929c-1.809,1.219-3.955,2.434-3.479,6.319C662.34,111.813,675.963,107.344,687.749,97.303z M217.961,143.477c-1.1-0.638-1.737-0.001-2.492,0.191c-4.376,1.12-6.824,6.592-10.395,6.827c-6.315,0.417-5.082,4.1-5.037,7.526 c0.041,3.105,0.652,6.201,0.996,9.303c0.101,0.909,0.63,1.969,1.435,1.378c2.577-1.891,5.023-3.988,7.325-6.208 c0.585-0.564-0.281-1.497-1.036-1.933c-4.224-2.44-4.244-4.252-0.414-7.378C211.835,150.335,216.046,148.117,217.961,143.477z M684.629,74.737c-12.397,4.275-23.271,11.295-33.803,18.918c-1.249,0.904-0.9,2.417-1.529,3.577 c-0.79,1.452,0.531,2.104,1.598,2.499c1.139,0.422,1.91-0.106,2.036-1.387c0.131-1.327,1.017-1.898,2.14-2.457 C666.019,90.445,673.598,80.244,684.629,74.737z M225.023,16.024c-0.257-0.558-0.366-1.341-0.801-1.626 c-0.924-0.604-1.4,0.445-2.061,0.854c-6.375,3.942-10.879,10.033-16.75,14.549c-1.47,1.132-1.657,2.637-0.774,3.954 c1.387,2.069,2.638,0.078,3.6-0.631c3.638-2.685,6.812-6.208,10.773-8.187C223.036,22.927,224.472,20.108,225.023,16.024z M650.491,56.329c11.221-6.579,24.124-10.001,35.278-18.938c-5.166,0.175-32.169,12.372-35.091,15.422 C649.826,53.702,649.69,54.864,650.491,56.329z M679.838,112.245c-3.25-0.245-6.71-0.074-8.694,1.874 c-2.802,2.75-6.51,3.913-9.602,5.449c-3.658,1.82-5.75,5.302-9.421,6.763c-0.693,0.275-1.534,1.43-0.689,2.527 c0.613,0.796,1.349,0.492,2.174,0.194c9.534-3.435,16.98-10.401,25.71-15.193C679.61,113.698,679.609,112.996,679.838,112.245z M685.962,25.135c-3.027,0.581-4.996,0.436-6.299,1.296c-6.507,4.301-13.844,6.955-20.618,10.705 c-2.355,1.305-3.256,4.104-5.778,5.258c-0.726,0.331-0.52,1.526,0.038,2.217c0.489,0.604,1.009,0.497,1.623-0.077 c4.822-4.508,12.204-4.531,16.771-9.439C675.404,31.112,681.017,29.863,685.962,25.135z M456.955,164.275 c3.342-0.862,5.428-2.132,7.09-3.945c1.499-1.636,2.156-4.634,5.358-2.833c0.195,1.196-2.117,1.553-0.664,3.141 c4.578-1.486,8.176-4.921,12.604-6.72c2.479-1.008,3.555-2.966,2.259-5.026c-1.521-2.415-3.224,0.07-4.509,0.886 c-2.21,1.403-4.305,3.028-6.425,4.565c-2.167,1.572-3.226-2.857-5.051-0.437C464.753,157.703,459.668,159.14,456.955,164.275z M253.594,155.501c6.899-3.07,10.304-9.317,16.729-10.98c0.314-0.081,0.661-1.232,0.499-1.723 c-0.396-1.201-1.481-2.007-2.702-1.686c-2.891,0.761-5.885,0.623-8.387,3.309C256.937,147.423,255.595,150.86,253.594,155.501z M805.979,172.223c-3.184,9.45-8.07,17.867-15.044,25.018C800.309,193.155,807.688,180.992,805.979,172.223z M685.897,86.593 c-8.279,0.545-13.562,6.377-19.946,9.931c-0.78,0.435-1.384,1.527-0.471,2.538c0.809,0.893,1.534,0.891,2.426-0.093 c3.322-3.662,7.884-5.325,12.386-6.596C683.482,91.472,684.812,89.653,685.897,86.593z M225.011,132.05 c-0.141-1.008,0.814-2.826-0.756-3.649c-0.653-0.342-2.813,0.513-2.928,1.094c-0.768,3.845-3.884,5.431-6.49,7.602 c-0.694,0.578-2.336,2.116,0.254,2.779C219.184,140.924,224.935,136.606,225.011,132.05z M805.73,205.066 c-8.889,1.93-15.063,8.291-21.945,13.543C791.761,215.208,799.194,210.922,805.73,205.066z M381.206,87.514 c-5.664-0.139-10.162,2.342-14.283,5.663c-1.345,1.084-1.468,2.382,0.564,2.642c1.904,0.245,4.065,0.853,5.7-0.751 C375.795,92.507,378.017,89.552,381.206,87.514z M742.968,129.02c-0.55,3.391,1.191,6.083,2.509,8.832 c0.4,0.835,1.195,2.27,2.618,1.577c1.022-0.499,0.851-1.762,0.676-2.671c-0.523-2.708-1.216-5.383-1.834-8.073 c-0.325-1.418,0.675-3.665-2.03-3.631C741.698,125.093,743.442,127.661,742.968,129.02z M467.189,27.354 c5.765-3.993,14.172-4.19,17.768-12.743C477.725,17.939,471.667,21.513,467.189,27.354z M559.651,27.817 c5.43-4.782,14.694-4.083,17.906-13.017C570.485,18.072,564.319,21.803,559.651,27.817z M214.687,160.766 c7.798-0.773,10.4-3.415,10.242-10.775C221.827,154.241,216.951,155.846,214.687,160.766z M210.754,90.765 c6.15,0.352,8.735-4.884,12.747-7.794c0.875-0.634,0.572-1.404-0.121-2.044c-0.848-0.783-1.465-0.117-2.14,0.332 C217.29,83.889,213.69,86.899,210.754,90.765z M800.32,216.757c5.723-0.199,8.493-2.823,9.035-7.819 c0.144-1.323,0.048-2.057-1.223-1.796c-1.765,0.36-3.626,1.065-4.468,2.759c-1.218,2.451,2.34,1.242,2.492,2.625 C804.55,214.563,800.771,212.938,800.32,216.757z M659.779,12.708c-3.762,0.352-7.297,1.154-10.39,3.279 c-0.994,0.683-1.795,1.634-1.321,2.917c0.697,1.891,1.849,0.248,2.81,0.262C655.481,19.232,655.891,13.668,659.779,12.708z M568.134,13.95c-8.098,1.889-13.235,5.36-15.724,10.759C557.149,19.845,563.746,19.403,568.134,13.95z M203.006,103.099 c6.466-1.95,8.028-8.009,12.43-10.868C210.818,94.795,205.766,96.821,203.006,103.099z M292.306,83.938 c-3.403,1.027-5.744,1.64-8.009,2.463c-0.971,0.354-1.477,1.31-1.26,2.444c0.271,1.413,1.429,1.232,2.338,1.095 C288.44,89.475,290.667,87.889,292.306,83.938z M457.641,196.097c3.007-1.684,4.533-3.911,5.497-6.656 C456.454,188.171,456.172,188.489,457.641,196.097z M215.539,15.944c-7,2.453-9.234,3.949-12.147,7.833 C209.065,24.238,211.457,19.958,215.539,15.944z M808.491,188.05c-2.363,1.599-4.006,2.683-5.619,3.808 c-1.163,0.812-1.143,1.986-0.666,3.112c0.262,0.618,0.854,0.853,1.634,0.491C806.865,194.063,809.749,192.627,808.491,188.05z M550.08,196.224c3.437-1.594,5.306-3.82,5.498-6.521c0.092-1.301-3.708-1.536-4.08-1.3 C548.75,190.149,550.201,193.008,550.08,196.224z M212.74,36.773c-1.786,1.013-3.235,1.524-4.258,2.489 c-1.715,1.614-4.445,2.515-4.417,5.515c0.003,0.352,0.065,0.79,0.859,0.717c2.658-0.244,3.755-2.207,5.07-4.069 C210.889,40.156,212.726,39.559,212.74,36.773z M734.836,112.774c-1.556-1.174-3.047-2.768-4.881-3.5 c-1.014-0.403-2.858,1.535-2.468,2.337c0.872,1.788,2.228,3.724,4.845,3.32C733.479,114.754,734.599,114.484,734.836,112.774z M225.054,24.678c-4.196,1.081-6.638,3.633-9.195,5.926c-1.045,0.938,0.206,1.229,0.733,1.725 c0.563,0.529,1.283,1.631,1.797,0.428C219.725,29.624,223.205,28.391,225.054,24.678z M483.556,213.513 c-0.977-2.639-0.655-5.259-3.292-5.117c-1.687,0.091-4.289,1.788-3.778,3.304C477.469,214.613,480.5,212.194,483.556,213.513z M216.211,97.72c1.935,0.558,1.514-1.756,2.904-1.676c0.797,0.045,1.846,0.057,2.371-0.394c1.186-1.019,5.135-1.293,2.484-3.64 c-1.845-1.632-4.075,1.731-6.186,2.741C216.717,95.262,216.082,96.239,216.211,97.72z M576.028,212.827 c-1.756-4.793-1.777-4.849-3.349-4.239c-1.584,0.614-3.886,2.125-3.288,3.187C570.84,214.35,573.661,212.535,576.028,212.827z M379.02,96.87c-0.083-1.186-0.332-1.583-1.509-1.148c-2.013,0.745-4.943-0.06-5.513,2.988c-0.247,1.327,1.374,1.534,2.156,1.173 C375.909,99.075,378.725,99.714,379.02,96.87z M784.863,203.083c-1.279,0.677-2.238,1.313-3.289,1.706 c-1.395,0.521-2.76,1.039-3.478,2.429c-0.096,0.185,0.433,0.984,0.75,1.038c1.68,0.281,3.178-0.258,4.467-1.357 C784.327,206.034,785.191,205.085,784.863,203.083z M653.84,106.178c3.048-1.716,6.096-3.431,9.142-5.146 C658.493,100.244,656.167,103.41,653.84,106.178z M225.391,141.294c-2.382,1.773-4.277,3.704-5.221,6.503 C221.212,145.088,227.97,147.596,225.391,141.294z M679.196,190.275c2.019,0.427,4.229,1.474,5.455-1.104 c0.225-0.471-0.064-1.728-0.176-1.735C682.258,187.287,680.746,188.696,679.196,190.275z M786.586,9.248 c-3.939-0.252-5.664,1.504-8.058,2.372C782.364,14.911,783.287,10.586,786.586,9.248z M653.24,201.304 c2.938-0.69,4.938-0.75,6.326-2.457c0.164-0.202-0.408-1.486-0.741-1.531C656.36,196.978,655.259,198.787,653.24,201.304z M272.354,135.514c-0.84,1.966-4.489,0.43-4.308,3.545c0.046,0.788,0.817,1.073,1.446,0.826 C271.272,139.187,273.198,138.512,272.354,135.514z" clip-rule="evenodd"/><path fill="#408896" fill-rule="evenodd" d="M1,68.991c1.706-0.849,3.028-1.937,3.016-4.096 C3.941,52.137,10.821,41.614,15.257,30.32c1.43-3.639,3.359-7.007,5.792-10.25c2.167-2.89,5.294-1.684,7.667-3.794 C41.098,5.259,56.533,3.375,72.288,3.032c3.705-0.08,6.113,3.592,9.965,3.709c6.718,0.202,11.276,4.731,16.666,8.025 c4.539,2.774,8.396,7.561,13.994,8.109c9.724,0.954,17.046-4.285,20.358-13.603c0.493-1.386,1.289-2.687,2.09-3.931 c0.854-1.327,0.606-4.133,3.493-3.004c2.356,0.923,3.461,3.283,2.772,5.23c-2.37,6.693-2.682,13.519-1.821,20.375 c0.712,5.672,0.584,11.479,2.354,17c0.298,0.93,0.981,1.729,0.607,2.813c-1.718,4.982-0.569,9.83,0.76,14.653 c0.589,2.136,0.763,4.215-0.12,6.327c-0.857,2.051-1.792,3.99-4.348,4.243c-2.825,0.279-2.265-2.386-3.049-3.763 c-1.308-2.294-1.991-5.13-4.088-6.746c-4.751-3.659-4.656-9.756-7.545-14.381c-1.386-2.218-3.686-2.718-5.235-4.618 c-4.67-5.725-7.295-12.787-12.425-18.004c-2.262-2.301-5.321-3.884-8.171-5.527C88.892,14.378,78.568,9.721,67.516,9.311 c-6.551-0.243-13.857-0.823-20.252,2.619c-0.579,0.312-1.696,0.589-1.694,0.876c0.041,5.673-4.66,3.332-7.313,4.607 c-4.834,2.325-7.188,7.603-11.465,10.714c-0.237,0.173-0.483,0.627-0.421,0.875c1.666,6.689-2.305,13.714,1.04,20.207 c1.106,2.147,3.214,3.772,4.83,5.666c1.438,1.687,6.475,1.43,3.095,5.882c-0.371,0.488,1.521,2.03,2.921,2.162 c2.878,0.271,4.94,1.432,5.934,4.341c0.294,0.86,1.154,1.821,1.988,2.156c8.124,3.27,15.017,9.006,23.473,11.607 c10.997,3.383,22.062,6.472,33.507,7.936c3.288,0.42,6.491,0.965,9.564,2.34c4.245,1.898,8.508,3.467,13.438,2.207 c1.065-0.272,3.531-1.126,4.716,1.05c1.604,2.942,2.804-3.174,4.902-0.164c1.574,2.257-3.173,3.528-0.328,5.472 c3.051,2.085,6.102,3.914,8.849,6.696c5.16,5.224,7.071,11.788,9.585,18.066c3.53,8.82,6.874,18.116,6.743,27.541 c-0.138,9.884,1.332,20.151-2.708,29.76c-0.515,1.227-0.991,2.407-0.888,3.813c0.34,4.623-1.562,7.477-5.441,10.522 c-2.699,2.119-5.169,5.154-8.009,7.603c-9.463,8.158-20.106,14.675-32.02,17.677c-14.344,3.613-28.91,2.394-43.225-2.35 c-10.204-3.381-17.468-10.318-24.688-17.545c-2.672-2.675-9.869-2.468-13.758,0.972c-4.059,3.59-9.365,6.108-10.381,12.402 c-0.288,1.784-2.03,3.319-4.103,2.93c-2.535-0.477-0.883-2.69-1.29-4.08c-1.266-4.328-1.063-8.755-1.217-13.168 c-0.021-0.615-0.211-1.576-0.617-1.774c-6.639-3.252-2.907-7.953-0.893-11.344c1.644-2.768,0.94-4.292-0.538-6.031 c-1.943-2.284-3.202-3.972,0.087-6.418c2.227-1.656,1.522-11.741-0.812-13.334c-1.781-1.216-1.998-2.119-1.105-3.851 c4.57-8.867,6.944-18.188,5.695-28.242c-0.121-0.969-0.204-2.173,0.964-2.557c1.122-0.369,1.81,0.622,2.428,1.383 c0.405,0.497,0.895,1.113,0.926,1.698c0.329,6.263,6.154,10.937,5.05,17.627c-0.19,1.153,0.563,2.956,1.503,2.812 c6.256-0.951,2.557,2.559,2.003,4.417c-0.447,1.498-0.618,2.865-0.137,4.369c1.407,4.399,2.724,8.828,4.121,13.231 c1.05,3.306,2.511,6.017,6.669,6.272c3.433,0.211,3.052,2.771,1.702,4.651c-3.15,4.394-0.955,7.789,1.672,11.096 c11.105,13.979,26.125,20.825,43.254,24.356c15.76,3.25,29.204-2.756,42.705-9.202c2.206-1.054,4.124-2.194,3.145-5.244 c-0.453-1.411,0.521-2.436,1.455-3.478c5.409-6.031,6.99-13.298,6.773-21.457c-1.495,0.511-2.796,1.361-4.05,1.297 c-2.527-0.129-3.9-2.361-2.137-3.895c2.189-1.903,1.487-4.158,1.949-6.121c1.373-5.836,0.12-6.879-5.507-5.359 c-1.294,0.349-2.693,1.041-3.424-0.66c-0.583-1.356,0.554-2.17,1.545-2.73c2.28-1.288,2.89-3.277,1.529-5.246 c-1.579-2.286-3.267-0.065-4.705,0.652c-1.614,0.805-2.902,2.283-4.532,3.034c-1.9,0.876-3.744,0.158-4.486-1.813 c-0.646-1.718-0.129-3.428,2.015-3.792c3.046-0.517,3.219-2.313,2.43-4.788c-3.207,0.274-5.492,3.273-8.86,2.765 c-1.25-0.188-2.951,0.753-3.651-0.699c-0.738-1.53-0.22-3.183,0.776-4.677c0.73-1.094,3.079-1.644,1.763-3.516 c-1.353-1.924-3.122-0.233-4.516,0.165c-1.993,0.57-3.727,1.041-5.704-0.068c-1.805-1.012-2.296-2.107-0.355-3.146 c1.163-0.623,2.898-0.437,1.563-2.437c-0.996-1.491-2.392-2.65-4.146-1.431c-3.013,2.093-6.858,2.824-9.254,5.98 c-0.962,1.269-2.573,2.216-4.419,1.505c-1.153-0.444-1.767-1.233-1.82-2.641c-0.086-2.28,1.847-2.073,3.024-2.657 c1.607-0.797,3.369-1.281,5.234-1.96c-0.651-2.436-2.124-3.662-5.032-3.543c-5.082,0.207-8.77-3.702-13.502-4.988 c-4.506-1.226-9.487-1.534-13.558-4.301c-1.418-0.965-2.815-0.093-3.674,0.609c-3.885,3.175-6.437,1.098-8.534-2.063 c-1.355-2.043-2.211-3.042-4.892-1.489c-1.433,0.83-4.115-0.315-4.874-2.35c-1.41-3.781-3.718-3.01-6.274-1.672 c-1.61,0.842-3.093,1.944-4.742,2.686c-1.5,0.675-3.277,2.875-4.718,0.749c-1.198-1.768,0.462-3.724,1.561-5.343 c0.782-1.153,4.5-0.375,2.397-3.377c-1.773-2.53-4.055-1.448-6.165-0.294c-2.029,1.11-4.063,2.215-6.043,3.408 c-1.809,1.091-2.991-0.148-3.765-1.275c-1.004-1.462,0.284-2.447,1.478-3.122c2.023-1.145,4.042-2.242,5.688-3.962 c1.287-1.344,2.098-2.956,1.052-4.432c-1.078-1.523-2.657-0.03-4.049,0.134c-1.78,0.209-3.058,3.633-4.533,1.609 c-1.308-1.793,0.714-3.774,2.476-5.177c1.573-1.255,2.311-3.451,1.325-4.944c-2.28-3.455-2.883-7.557-5.001-11.139 C4.123,80.269,2.927,76.9,1,73.991C1,72.324,1,70.658,1,68.991z M115.002,100.172l-0.324-0.119 c-0.12-1.353,3.397-0.75,1.603-3.065c-1.035-1.335-1.81-0.687-2.853-0.035c-2.767,1.726,0.607,2.012,0.658,3.057 c-2.158,1.434-5.695-1.273-6.94,1.653c-1.23,2.89-2.335,4.47-5.605,5.981c-6.414,2.966-12.671,6.677-18.223,11.298 c-0.818,0.68-2.71,1.518-2.858,1.326c-1.113-1.45-3.112-1.333-2.866-0.144c0.468,2.264-2.272,3.831-1.01,5.456 c0.861,1.107,2.837,1.65,4.604,1.276c5.209-1.104,9.746-3.246,14.167-6.488c5.944-4.36,11.845-9.014,19.138-11.373 c4.68-1.514,7.501-5.547,10.851-9.233c-3.186-1.348-5.293-0.227-7.445,0.582C116.933,100.287,115.967,100.229,115.002,100.172z M23.972,161.981c-0.651-1.325-1.543-2.589-1.89-3.989c-0.388-1.572-1.312-1.124-2.25-1.032c-0.802,0.078-1.724-0.023-1.789,1.183 c-0.051,0.939,0.381,1.473,1.222,1.919c0.961,0.509,1.795,1.258,2.684,1.902c-0.704,1.276-2.851,0.304-3.253,2.31 c-0.702,3.497-2.133,6.902-2.387,10.41c-0.122,1.678,2.173,2.722,4.203,1.981c1.039-0.379,1.913-1.292,3.346-0.615 c-0.176,4.394-5.253,6.208-5.59,10.548c-0.086,1.111-1.349,2.3,0.8,2.29c3.99-0.018,1.792,3.468,1.448,3.694 c-5.741,3.765-2.925,8.542-1.883,14.516c4.713-6.87,8.763-12.771,12.83-18.698c-2.133-1.082-4.895-1.943-1.407-4.459 c1.508-1.087,0.275-2.01,0.108-3.021c-0.885-5.358-6.005-9.277-5.122-15.315C25.197,164.559,25.325,162.883,23.972,161.981z M37.792,97.771c0.296,0.28,0.592,0.56,0.889,0.84c-2.675,2.509-5.896,4.05-9.28,5.351c-1.675,0.644-3.671,1.87-2.977,3.7 c0.91,2.398,2.937,0.783,4.639,0.334c5.257-1.389,8.388-6.159,13.273-8.135c1.574-0.636,2.995-1.941,3.552,0.9 c-1.315,2.085-4.392,0.7-5.739,3.002c-0.552,0.943-2.842,1.269-1.698,2.76c0.982,1.28,2.08,0.048,3.128-0.909 c1.575-1.438,3.53-2.461,5.324-3.662c1.901-0.196,3.659-1.614,6.082-0.497c-5.179,2.202-8.58,6.823-14.013,8.194 c-0.757,0.19-2.177,0.497-1.669,1.913c0.259,0.722,1.179,1.922,1.373,1.844c2.629-1.057,6.417,1.184,8.027-2.733 c0.35,0.305,0.7,0.609,1.049,0.915c2.223,1.388,2.542,1.108,3.353-1.252c0.551-1.604-1.36-4.087,1.299-4.811 c4.399,7.166-2.25,8.16-7.332,10.966c3.428,0.183,4.441,3.348,6.834,2.238c5.744-2.666,10.693-6.725,16.156-9.911 c2.967-1.73,6.085-3.884,9.013-6.009c4.912-3.563,11.691-4.126,15.692-9.937c-3.497,0.797-5.677,0.437-7.826-2.863 c-2.301-3.531-6.349-2.201-7.971,1.917c-0.177,0.449-0.384,0.92-0.695,1.278c-5.065,5.832-13.473,6.681-18.616,12.447 c-0.474,0.531-1.632,0.653-2.287-0.015c-0.827-0.845-0.622-1.87,0.174-2.631c0.771-0.738,1.822-1.169,2.691-1.679 c3.566-2.093,8.325-2.61,10.496-6.587c1.234-2.261,2.313-4.27,4.844-5.26c1.197-0.469,1.875-1.398,0.607-2.668 c-1.543-1.547-7.799-1.146-9.393,0.257c-4.852,4.269-10.407,7.383-16.704,9.253c5.157-3.687,7.221-10.931,14.591-11.763 c-1.036-2.171-3.17-0.929-4.106-1.853c-3.17-3.125-5.156-0.904-8.079,0.719c-3.595,1.995-6.636,4.723-10.061,6.887 c-4.123,2.603-8.921,4.833-12.064,9.673C33.141,99.091,35.229,97.557,37.792,97.771z M140.94,123.942l0.071,0.064 c-0.276-2.633,2.354-1.763,3.417-2.803c0.654-0.64,2.082-0.004,2.438-1.308c1.424-5.221-2.05-8.18-5.478-10.746 c-2.518-1.885-5.793-3.736-8.352,0.245c-0.902,1.403-1.455,1.106-1.945-0.026c-1.2-2.774-4.446-3.772-6.121-1.511 c-2.875,3.884-7.514,5.26-11.348,6.783c-7.203,2.859-12.097,9.202-19.476,11.509c-1.087,0.34-2.825,1.856-1.604,3.468 c0.789,1.042,2.139,1.451,3.923,0.577c4.408-2.158,9.923-2.157,12.76-7.307c0.516-0.937,2.014-2.387,3.788-1.729 c0.323,0.12,0.731,0.842,0.634,1.123c-0.623,1.792-2.293,1.579-3.732,1.79c-0.536,0.078-0.591,0.304,0.033,0.785 c1.056,0.475,2.341,1.052,3.816,1.714c-4.679,1.238-4.679,1.238-8.583,7.573c2.238,0.541,3.242-1.224,4.549-2.308 c1.739-1.441,3.728-2.663,5.912-1.774c3.338,1.358,5.207,0.473,6.603-2.767c0.531-1.233,2.328-3.529,3.543-1.368 c1.301,2.312,3.725,1.387,5.694,3.02c-6.118,2.851-10.994,6.508-15.852,10.174c3.877,0.524,7.104-1.716,11.005-1.011 c-1.338,1.77-3.669,2.13-4.265,4.421c2.496,1.064,5.138,0.008,6.295-1.344c3.537-4.133,7.634-3.556,12.228-3.021 c-1.489,4.698-4.873,5.004-8.68,5.324c3.06,0.756,6.12,1.512,9.275,2.291c-1.407,1.666-3.089,2.141-4.969,2.302 c-2.747,0.235-4.59,2.185-4.107,4.528c0.521,2.533,3.205,1.511,5.275,1.656c2.344,0.164,3.45-1.671,5.312-2.013 c-0.006,0.813-0.013,1.624-0.019,2.436c-1.061,2.807-2.587,5.229-5.128,6.996c-1.083,0.752-2.116,1.833-0.128,2.996 c1.71,1,3.825-1.681,4.966,0.21c1.549,2.563-2.95,1.577-2.683,3.714c0.021,0.164-0.034,0.418,0.055,0.482 c1.315,0.956-0.73,3.296,1.332,3.693c1.644,0.316,3.56,0.934,4.814-1.296c0.73-1.3,2.42-2.519,3.507-0.631 c0.984,1.71-1.046,1.866-2.197,2.412c-2.572,1.221-3.67,3.834-4.4,6.186c-1.345,4.333,0.353,5.724,4.827,4.908 c1.033-0.188,1.326-2.342,2.882-0.841c0.142,2.785-3.248,2.879-4.078,4.993c7.018-0.931,9.33-5.089,5.896-10.686 c-0.764-1.244,0.262-1.739,0.634-2.49c0.355-0.718,2.163-0.965,0.893-2.169c-2.334-2.213-1.335-3.428,1.145-4.068 c1.241-0.321,1.412-1.017,1.679-2.052c1.672-6.498-0.338-13.018-0.711-19.382c-0.23-3.941-1.181-8.593-2.049-12.843 c-0.834-4.086-2.913-7.286-4.607-10.801c-0.21-0.438-1.096-0.549-1.668-0.812C146.199,129.011,143.208,123.003,140.94,123.942z M22.796,84.292c-2.867,1.959-5.467,3.881-8.214,5.564c-2.195,1.346-0.965,3.147-0.376,4.28c0.909,1.747,1.775-0.274,2.681-0.607 c0.621-0.229,1.824-1.226,1.709,0.123c-0.394,4.615,2.968,1.063,4.168,2.096c0.01,1.14-0.7,1.83-1.649,2.169 c-1.348,0.482-3.429,0.596-2.515,2.65c1.169,2.63,2.812,0.43,4.032-0.205c7.167-3.725,13.155-9.153,20.394-13.945 c-1.941-0.326-3.194-0.536-4.257-0.715c2.723-5.017,11.083-1.065,12.625-8.1c-3.031-2.007-6.081-2.989-9.963,0.533 c6.477-5.479-1.927-4.637-2.248-7.679c-0.327-3.094-3.56,1.379-5.647,0.335c0.021-1.397,5.078-2.537-0.051-4.372 c-1.19-0.427-1.735-3.601-4.519-2.558c-0.033,0.012-0.284-0.394-0.338-0.626c-0.523-2.263-0.923-2.753-2.104-2.049 c-4.895,2.921-10.132,5.5-14.348,9.219c-1.829,1.613-3.372,5.727-1.354,8.622c1.087,1.559,1.521,2.146,0.4,3.76 c-0.844,1.215-1.837,2.81,0.278,4.243c1.674,1.134,2.824,1.068,4.41-0.168C17.798,85.39,19.727,83.601,22.796,84.292z M101.227,99.774c-6.186,0.654-10.342,4.094-15.048,6.42c-2.209,1.092-3.705,3.448-6.147,3.703 c-6.818,0.713-10.925,6.131-16.407,9.136c-0.862,0.471-2.114,1.4-1.213,2.813c0.717,1.125,2.028,1.421,3.109,0.963 c2.566-1.093,5.188-1.994,7.635-3.473c5.599-3.383,10.302-7.948,16.512-10.695C93.654,106.878,98.285,104.305,101.227,99.774z M26.933,57.083c-0.875-1.485-1.523-3.961-3.043-4.743c-1.287-0.661-3.184,1.292-4.33,2.729 c-3.096,3.879-6.246,7.669-10.529,10.362c-0.884,0.556-2.275,1.452-1.587,2.744c0.796,1.493,2.208,0.687,3.498,0.356 c5.549-1.422,8.809-6.759,14.323-8.283C26.254,59.974,27.012,58.731,26.933,57.083z M9.515,60.723 c6.199-5.52,14.272-9.938,12.015-20.823c-3.163,1.684-5.187,4.061-7.296,6.311c-0.608,0.649-1.884,1.67-0.783,2.416 c2.234,1.513,0.497,2.72-0.358,3.139C9.169,53.685,9.756,57.326,9.515,60.723z M131.193,38.534 c6.969-3.896,6.975-3.908,4.921-10.224C129.543,29.077,131.017,33.915,131.193,38.534z M137.327,53.034 c-1.911,2.52-2.813,4.665-2.044,7.055c0.439,1.367,1.204,3.035,3.056,2.771c2.075-0.295,1.834-2.136,1.636-3.574 C139.674,57.1,139.376,54.836,137.327,53.034z M96.037,95.582c3.734,2.716,6.531,0.761,9.564-1.054 C102.121,91.413,99.449,93.812,96.037,95.582z M135.323,44.889c2.162-0.317,2.856-1.584,2.675-3.542 c-0.105-1.136,0.048-2.837-1.659-2.17c-1.469,0.573-3.312,1.52-3.238,3.625C133.146,44.098,134.047,44.864,135.323,44.889z M36.875,193.881c-0.681-1.115-0.823-2.719-2.457-2.846c-1.779-0.14-2.103,1.349-2.357,2.623 c-0.267,1.336,0.218,2.282,1.817,2.212C35.278,195.809,36.477,195.47,36.875,193.881z M21.542,152.673 c-0.099-0.939-0.658-1.568-1.509-1.627c-1.491-0.104-2.553,0.663-2.918,2.132c-0.233,0.94,0.21,1.743,1.249,1.604 C19.698,154.604,20.862,153.952,21.542,152.673z" clip-rule="evenodd"/><path fill="#3F8796" fill-rule="evenodd" d="M904.908,221.831c0.672-2.983,2.253-3.942,4.705-3.873 c1.997,0.056,4.006,0.116,5.996-0.022c3.553-0.247,4.683-2.168,3.075-5.323c-1.543-3.031-2.671-6.535-6.886-7.14 c-0.84-0.121-1.922-0.659-2.152-1.845c-1.333-6.86-6.389-11.649-9.696-17.411c-0.863-1.503-7.589-8.005-9.29-9.307 c-1.205-0.922-1.846-2.131-0.894-3.812c1.52-2.681-0.371-4.689-2.266-5.6c-2.048-0.984-2.263,1.692-3.164,2.916 c-6.818,9.258-11.781,19.725-18.887,28.809c-3.783,4.838-2.448,12.707,2.374,17.386c1.372,1.332,1.482,3.924,4.392,3.706 c0.464-0.034,1.544,2.158,1.548,3.324c0.006,2.022-2.174,1.719-3.049,1.379c-6.224-2.42-12.607,0.435-19.278-1.456 c-7.171-2.03-15.579-0.592-23.365,0.654c-1.553,0.248-3.283,0.874-3.906-0.799c-0.771-2.071,1.344-2.72,2.755-3.382 c20.645-9.701,35.277-25.798,47.161-44.682c2.31-3.67,5.805-6.214,7.863-10.121c2.796-5.305,2.349-9.929-1.572-14.125 c-3.257-3.486-5.422-7.341-6.722-11.951c-0.578-2.049-0.961-5.115-4.292-5.329c-0.155-0.01-0.442-0.167-0.435-0.195 c1.201-4.613-3.475-5.393-5.254-8.053c-0.179-0.268-0.715-0.631-0.701-0.647c3.581-4.552-1.745-5.283-3.166-7.764 c-1.707-2.978-2.661-6.378-4.186-9.475c-0.551-1.118-1.744-1.964-2.756-2.799c-2.457-2.028-4.407-3.572-4.522-7.742 c-0.092-3.336-3.917-6.784-6.551-9.773c-2.429-2.757-5.983-1.479-8.968-1.003c-2.157,0.344-4.162,0.954-6.284,0.079 c-1.332-0.551-3.151-0.708-2.642-2.863c0.443-1.878,0.553-4.358,3.164-4.394c8.105-0.11,16.234-0.33,24.314,0.161 c6.449,0.392,12.62,0.86,19.086-1.014c5.336-1.547,11.229-1.299,16.889-1.547c3.132-0.137,6.32,0.646,9.412-0.285 c2.63-0.792,3.587,1.834,5.5,2.504c0.677,0.236,0.491,1.206-0.152,1.601c-1.605,0.986-2.958,2.72-5.238,1.893 c-4.794-1.737-8.98,1.12-11.467,3.815c-2.442,2.646-0.629,7.292,1.529,10.628c3.23,4.99,6.517,9.947,9.896,14.837 c2.892,4.185,6.32,7.957,7.669,13.137c0.784,3.009,2.823,4.123,5.074,0.795c7.349-10.858,15.386-21.366,17.663-34.799 c0.702-4.137-1.577-6.292-4.89-8.132c-1.67-0.927-5.183-1.159-4.183-3.881c0.768-2.084,3.821-0.913,5.832-0.751 c10.625,0.86,21.248,1.817,31.798-0.609c2.281-0.524,4.325,0.209,4.912,2.1c0.525,1.696-1.863,1.829-3.102,2.475 c-0.146,0.075-0.306,0.17-0.461,0.174c-15.121,0.365-19.88,12.618-26.428,22.902c-2.214,3.477-4.599,6.938-7.431,9.904 c-3.08,3.227-4.308,7.595-7.357,10.712c-0.912,0.933-1.317,1.598-0.234,2.296c5.164,3.332,0.567,4.465-1.416,5.844 c-2.231,1.552-3.033,2.37,0.313,3.375c1.144,0.344,2.749,1.716,2.178,2.989c-3.133,6.962,2.56,11.076,5.7,15.137 c3.803,4.917,6.372,10.614,10.202,15.555c3.076,3.972,3.851,10.679,7.3,15.405c2.494,3.42,6.424,5.54,6.561,10.924 c0.049,1.888,4.139,4.967,4.613,7.587c1.015,5.614,8.427-0.685,9.356,6.322c0.626,4.719,7.174,4.253,11.651,3.183 c2.741-0.656,2.633,1.439,3.213,2.729c1.018,2.267-1.059,2.508-2.361,2.711c-1.788,0.281-3.748,0.472-5.468,0.038 c-10.829-2.727-21.619,0.133-32.396,0.33C925.178,220.426,915.137,220.019,904.908,221.831z M926.874,188.019 c0.889-3.673-0.874-4.921-4.088-3.862c-4.796,1.581-8.588,4.992-12.479,8.026c-2.672,2.086,1.263,2.885,1.679,4.531 c0.513,2.026,1.883,0.926,2.354-0.111c2.195-4.841,8.698-4.268,11.034-8.912c0.274-0.545,1.144-0.484,1.552,0.277 c-2.189,5.125-9.136,5.796-10.887,11.374c3.535,2.286,6.199-1.407,9.479-1.264c-0.72,3.387-4.033,2.481-5.754,3.968 c-0.651,0.562-2.094,0.774-1.291,2.097c0.761,1.253,1.604,2.538,2.692,3.486c0.983,0.857,2.047-0.107,2.405-0.937 c1.879-4.362,6.745-5.297,9.561-8.54c1.018-1.174,5.051-1.717,0.947-4.113c-1.107-0.647-0.34-0.891,0.311-1.008 c4.042-0.733,2.775-2.99,1.537-5.261c-1.561-2.865-3.158-2.343-5.268-0.416C929.86,188.083,928.162,187.826,926.874,188.019z M914.948,179.95c-0.018,0.559-0.4,1.34,0.592,1.359c0.297,0.006,0.893-0.548,0.858-0.771c-0.149-0.986-0.979-0.406-1.521-0.518 c2.902-3.435,7.362-4.632,10.714-7.466c1.846-1.561,2.916-2.852,0.626-4.649c-3.632-2.854-4.902-7.336-7.623-10.848 c-3.44-4.444-3.859-4.792-7.762-0.387c1.982,0.786,5.494-0.978,5.803,2.208c0.222,2.298-2.692,3.228-4.767,4.328 c-3.404,1.806-6.565,4.072-9.829,6.143c0.061,0.458,0.119,0.917,0.179,1.376c3.835-2.247,7.655-3.794,11.605-1.349 c0.936,0.579,0.823-0.482,1.034-1.003c0.993-2.444,3.313-1.863,4.432-0.975c1.388,1.103-0.396,2.833-1.091,3.75 c-1.253,1.656-3.168,2.846-4.91,4.087c-1.328,0.946-2.284,2.514-2.079,3.689C911.562,180.95,913.697,179.449,914.948,179.95z M889.544,113.04c1.346,4.229-0.009,7.03-3.341,8.12c-5.369,1.757-7.212,5.615-8.938,10.572c-1.073,3.075,0.271,3.242,1.887,4.271 c2.413,1.536,2.594-0.188,3.077-1.867c0.311-1.08,1.229-1.724,2.188-2.458c4.152-3.174,8.128-6.566,11.242-10.871 c0.955-1.319,1.067-2.236,0.134-3.491c-1.084-1.457-2.209-2.917-3.04-4.52c-1.917-3.696-4.221-3.771-7.544-1.607 c-3.002,1.954-4.841,5.297-8.248,6.618c-1.422,0.551-3.634-0.102-3.444,2.483c0.06,0.812,0.688,1.477,1.67,1.59 c1.781,0.204,3.813-0.35,4.406-1.662C881.527,115.941,885.888,115.59,889.544,113.04z M884.592,137.707 c6.333,0.815,11.249-1.443,16.127-3.844c3.369-1.659,1.954-4.146,0.841-6.287c-1.329-2.554-3.951-2.148-5.616-0.931 C891.892,129.606,887.642,132.489,884.592,137.707z M856.97,97.948c9.923-2.53,18.071-7.765,25.578-15.271 c-6.106-0.997-6.227-0.978-8.771,2.571c-0.97,1.352-2.314,2.044-3.658,2.95C865.613,91.233,860.526,93.57,856.97,97.948z M892.646,141.063c-1.876,0.826-3.352,1.495-4.843,2.127c-5.868,2.489-6.267,3.84-2.364,8.946 c0.696,0.913,0.946,3.472,3.026,1.722c1.324-1.115,3.658-2.246,1.202-4.655c-1.464-1.436-0.89-2.914,0.606-4.222 C891.313,144.075,892.805,143.358,892.646,141.063z M926.336,207.354c2.14-0.222,3.913-0.235,5.149-1.599 c2.59-2.86,5.979-4.043,9.567-4.717c1.771-0.333,3.046-0.992,2.313-2.805c-0.752-1.862-2.207-1.245-3.72-0.475 C934.893,200.18,930.214,202.656,926.336,207.354z M939.369,213.149c2.892-0.888,5.734-1.585,8.422-2.666 c1.166-0.47,2.001-2.166,1.279-3.199c-0.553-0.789-1.688-2.363-3.196-1.568c-2.54,1.337-5.011,2.826-7.386,4.438 c-0.523,0.355-0.658,1.483-0.674,2.262C937.81,212.647,938.815,212.901,939.369,213.149z M869.222,103.767 c6.532,1.082,9.392-3.435,12.562-7.426C877.485,98.43,872.022,98.555,869.222,103.767z M897.612,153.085 c5.281,0.841,7.491-3.753,11.387-3.82c0.78-0.014,3.265,0.163,2.415-1.944c-0.63-1.563-2.258-1.599-3.765-0.617 C904.604,148.688,901.52,150.608,897.612,153.085z M909.539,175.803c-2.817-0.533-4.836,0.888-6.983,1.946 c-1.118,0.552-3.466,0.104-1.969,2.622c1.077,1.816,2.272,1.773,4.082,0.811C906.967,179.959,907.176,177.028,909.539,175.803z M868.181,83.709c-6.208,0.893-10.276,3.635-15.829,5.943C857.917,90.163,863.872,87.899,868.181,83.709z M932.201,210.276 c-3.149-0.943-4.979,1.957-7.545,2.657c-1.25,0.341-0.868,1.951-0.202,2.984c0.823,1.279,1.619,0.956,2.824,0.202 C929.561,214.693,931.525,213.155,932.201,210.276z M944.237,215.203c3.333,1.644,6.41,0.124,9.486-0.727 c0.492-0.137,1.257-0.728,0.916-1.527c-0.157-0.368-0.82-0.896-1.031-0.809C950.605,213.378,946.346,210.544,944.237,215.203z M942.33,82.996c-2.328,0-3.446,0.027-4.562-0.006c-2.336-0.07-2.879,1.831-3.678,3.385c-0.294,0.572-0.227,1.364,0.502,1.682 c1.725,0.752,2.692-0.82,3.88-1.493C939.559,85.949,940.371,84.853,942.33,82.996z M930.416,96.451 c2.067-1.297,3.891-2.571,3.721-5.121c-0.029-0.431-2.105-1.31-2.415-1.04C929.953,91.831,929.302,93.836,930.416,96.451z M906.947,185.823c4.489,0.042,5.219-0.378,7.645-4.146C911.193,181.377,909.139,183.29,906.947,185.823z" clip-rule="evenodd"/><path fill="#448D9B" fill-rule="evenodd" d="M1078.686,26.113c-4.323,0.132-8.583-0.291-12.875-1.068 c-14.88-2.697-29.061,0.609-43.002,5.483c-6.922,2.42-12.042,7.332-15.701,13.325c-8.322,13.626-13.253,28.684-14.157,44.529 c-0.864,15.131,5.882,27.644,17.104,37.754c4.523,4.075,9.896,7.643,9.59,14.9c-0.067,1.592,1.472,2.184,2.642,2.687 c3.044,1.31,6.074,2.978,9.275,3.512c4.959,0.827,5.887,3.766,5.151,7.849c-1.472,8.17-3.435,16.231-5.908,24.162 c-0.62,1.987-1.8,3.359-4.017,2.638c-2.373-0.771-2.059-2.693-1.422-4.544c2.219-6.45,3.307-13.191,5.115-19.737 c0.959-3.475-0.173-4.695-3.27-5.679c-3.142-0.998-6.134-2.523-9.099-4c-3.112-1.55-5.396-3.34-4.465-7.723 c0.737-3.469-2.495-5.556-4.919-7.552c-10.202-8.404-17.33-18.747-20.287-31.766c-2.215-9.758-2.506-19.36,1.491-28.86 c1.532-3.644,2.313-7.613,3.324-11.465c6.208-23.631,21.349-37.042,45.587-40.53c10.463-1.505,20.791-2.275,31.249-0.103 c3.047,0.633,6.308,0.533,9.447,0.36c10.124-0.558,19.353,2.726,28.36,6.636c7.73,3.356,10.388,9.363,7.571,16.924 c-0.875,2.348-0.106,3.942,0.824,5.552c6.938,12.009,9.215,24.743,6.593,38.406c-0.952,4.963,1.641,8.596,5.266,11.657 c6.878,5.806,6.901,9.478,0.107,15.234c-1.123,0.952-2.933,1.694-2.344,3.438c3.22,9.523-4.649,17.004-4.69,26.02 c-0.016,3.473-3.367,5.8-6.918,7.152c-4.821,1.836-9.794,1.95-14.769,1.662c-5.978-0.346-9.723,2.021-11.759,7.727 c-3.176,8.892-6.665,17.669-10.037,26.491c-0.593,1.553-1.2,3.104-1.903,4.607c-0.622,1.326-1.713,2.094-3.223,1.722 c-1.882-0.464-2.024-1.959-1.846-3.554c0.056-0.495,0.062-1.02,0.238-1.474c4.155-10.677,8.277-21.367,12.523-32.007 c2.708-6.785,8.229-9.14,15.122-9.206c3.495-0.034,7.016,0.009,10.475-0.406c4.47-0.535,7.79-2.859,7.002-7.836 c-0.665-4.195,3.407-7.414,1.787-11.586c4.864-2.891,1.65-7.417,2.239-11.169c0.455-2.908,2.302-4.694,4.586-6.201 c2.635-1.739,3.326-3.34,0.376-5.717c-6.402-5.157-9.131-11.354-7.534-20.119c2.322-12.751-1.257-24.712-8.188-35.628 c-0.979-1.542-1.933-2.847-0.702-4.961c3.568-6.131,2.6-9.225-3.973-11.873C1096.404,28.422,1088.024,24.998,1078.686,26.113z" clip-rule="evenodd"/><path fill="#448D9B" fill-rule="evenodd" d="M1057.568,68.193c6.825,3.428,12.497,7.325,13.712,15.132 c0.781,5.023-1.59,9.991-5.886,12.182c-4.607,2.35-8.808,1.283-12.383-2.031c-4.63-4.292-7.108-9.811-6.453-16.084 c0.461-4.404-1.434-3.856-4.109-2.91c-8.945,3.163-12.665,12.148-8.562,21.717c3.205,7.476,6.992,14.703,10.508,22.045 c10.482,21.891,8.229,43.886,0.543,65.929c-0.644,1.848-1.483,3.666-3.808,2.931c-2.61-0.824-2.073-2.841-1.459-4.93 c1.728-5.878,3.404-11.757,4.672-17.774c3.401-16.138,0.956-31.383-6.149-46.063c-3.257-6.729-6.876-13.313-9.662-20.232 c-5.949-14.778,1.536-27.713,17.214-30.224c2.889-0.462,5.124-1.502,7.342-3.576c10.215-9.553,26.441-6.301,34.601,6.685 c5.814,9.252,6.909,19.243,4.57,29.713c-3.388,15.162-10.186,29.123-15.663,43.538c-5.255,13.831-9.887,27.835-13.723,42.115 c-0.129,0.479-0.098,1.02-0.295,1.462c-0.779,1.74-1.044,4.433-3.704,3.856c-2.797-0.604-2.595-2.977-1.936-5.253 c1.613-5.573,3.149-11.17,4.782-16.739c5.896-20.112,14.603-39.19,21.696-58.859c3.113-8.632,5.657-17.424,3.559-26.811 c-1.389-6.207-4.306-11.513-9.167-15.606C1071.88,63.413,1064.65,63.266,1057.568,68.193z M1051.967,78.918 c0.459,3.34,1.501,6.98,4.252,9.823c1.801,1.862,4.01,3.154,6.64,1.59c2.585-1.538,3.446-4.027,2.737-6.847 c-1.092-4.341-4.157-7.023-8.132-8.744C1053.49,73.018,1052.014,74.031,1051.967,78.918z" clip-rule="evenodd"/><path fill="#BF6651" fill-rule="evenodd" d="M846.593,304.566c0,5.655,0.08,11.313-0.015,16.967 c-0.288,17.281-14.383,19.782-27.027,16.203c-1.869-0.529-1.643-1.855-0.972-3.15c0.722-1.392,0.247-3.884,3.367-3.045 c3.348,0.9,6.811,1.419,10.354,0.685c5.806-1.202,8.995-6.181,7.735-11.855c-0.535-2.418-2.069-1.589-3.421-1.563 c-4.304,0.084-8.618,0.736-12.837-0.834c-5.412-2.014-8.896-5.637-9.992-11.392c-0.187-0.979-0.424-1.96-0.492-2.95 c-0.536-7.774-0.618-15.536,6.282-20.961c7.405-5.821,15.692-3.977,23.854-2.042c2.827,0.671,3.192,2.98,3.177,5.473 C846.566,292.257,846.593,298.412,846.593,304.566z M840.023,299.064c0-3.316,0.018-6.632-0.009-9.948 c-0.011-1.295,0.089-2.471-1.646-3.126c-10.461-3.951-18.469,1.391-18.596,12.542c-0.018,1.49,0.006,2.985,0.116,4.47 c0.53,7.105,4.021,9.779,12.284,9.457c7.855-0.307,7.855-0.307,7.855-8.919C840.028,302.048,840.028,300.557,840.023,299.064z" clip-rule="evenodd"/><path fill="#BC5F4A" fill-rule="evenodd" d="M559.883,287.639c0.001-8.318,0.125-16.64-0.052-24.954 c-0.089-4.141,1.695-5.649,5.662-5.597c8.649,0.114,17.301,0.08,25.953,0.006c2.289-0.021,3.758,0.209,3.725,3.144 c-0.03,2.741-0.766,3.862-3.681,3.796c-7.149-0.164-14.309,0.062-21.459-0.106c-2.856-0.067-3.846,0.913-3.702,3.719 c0.18,3.484,0.212,6.996-0.006,10.476c-0.201,3.206,1.228,3.993,4.128,3.842c3.651-0.19,7.324-0.173,10.977,0.004 c2.124,0.104,5.189-1.423,5.239,3.037c0.052,4.702-3.18,3.268-5.513,3.365c-3.654,0.153-7.323,0.151-10.979,0.01 c-2.725-0.104-3.924,0.828-3.841,3.699c0.148,5.153,0.171,10.318-0.011,15.47c-0.107,3.056,1.03,4.088,4.049,4.02 c6.984-0.158,13.976,0.04,20.961-0.092c2.646-0.05,3.878,0.509,3.854,3.539c-0.024,2.999-1.54,3.078-3.754,3.063 c-8.65-0.062-17.306-0.167-25.952,0.033c-4.451,0.103-5.772-1.827-5.662-6.017C560.035,303.947,559.883,295.791,559.883,287.639z" clip-rule="evenodd"/><path fill="#C06854" fill-rule="evenodd" d="M245.88,257.844c-5.911,8.585-11.388,16.928-17.304,24.948 c-2.559,3.469-2.797,5.953-0.115,9.546c6.034,8.081,11.56,16.54,17.493,25.138c-4.697,1.193-7.829,0.728-10.395-3.569 c-4.086-6.843-8.929-13.23-13.372-19.865c-1.291-1.926-2.762-3.745-5.192-2.832c-2.222,0.836-1.043,3.198-1.083,4.837 c-0.146,6.162-0.14,12.331-0.02,18.494c0.047,2.427-0.467,3.591-3.261,3.632c-2.97,0.042-3.604-1.105-3.589-3.815 c0.094-17.829,0.087-35.659,0.004-53.487c-0.012-2.572,0.332-3.889,3.44-3.896c3.154-0.007,3.458,1.392,3.407,3.927 c-0.126,6.329-0.104,12.663,0.007,18.993c0.026,1.464-1.001,3.582,1.359,4.22c2.093,0.564,3.444-0.805,4.525-2.391 c4.404-6.46,9.065-12.766,13.088-19.456C237.46,257.967,240.423,256.028,245.88,257.844z" clip-rule="evenodd"/><path fill="#3F8796" fill-rule="evenodd" d="M399.015,24.615c-0.05,7.988-11.441,22.351-17.608,22.2 c-5.271-0.128-23.151-10.939-22.979-13.894c0.895-15.391,8.907-27.901,17.891-27.928C386.382,4.962,399.068,15.929,399.015,24.615 z M374.706,39.604c5.625,2.875,9.825,0.764,13.45-2.056c4.079-3.17,6.074-7.722,5.985-13.018 c-0.022-1.382-0.895-1.533-2.023-1.399c-4.811,0.57-17.103,9.191-19.477,13.774c3.477-0.276,6.399-2.681,10.874-2.519 C380.333,36.272,377.965,37.673,374.706,39.604z M364.763,29.242c5.563,2.396,8.012-2.07,11.357-3.481 c3.945-1.665,8.747-1.581,11.859-5.224c0.75-0.879,2.92-0.993,1.771-2.751c-0.776-1.188-2.109-1.741-3.875-1.149 C378.047,19.26,372.267,25.007,364.763,29.242z" clip-rule="evenodd"/><path fill="#BD624D" fill-rule="evenodd" d="M492.92,310.635c2.409-5.027,4.757-10.086,7.258-15.067 c1.005-2.001,1.565-4.826,4.372-4.917c2.948-0.097,3.338,2.781,4.322,4.812c2.44,5.038,4.861,10.085,8.386,15.039 c0.941-8.805,1.856-17.612,2.847-26.411c0.187-1.652-0.496-3.861,2.298-4.219c3.174-0.407,4.957,0.138,4.441,4.092 c-1.246,9.554-2.104,19.158-3.235,28.729c-0.286,2.417-0.429,5.297-3.968,5.325c-3.378,0.027-7.016,0.961-8.807-3.568 c-1.635-4.14-3.857-8.046-6.062-12.548c-3.298,4.269-4.79,8.824-6.776,13.051c-2.125,4.52-5.787,2.955-9.037,2.945 c-3.062-0.01-2.942-2.582-3.185-4.722c-1.123-9.9-2.227-19.804-3.391-29.699c-0.226-1.924-0.692-3.682,2.302-3.652 c2.375,0.023,3.966,0.074,4.229,3.277c0.745,9.092,1.93,18.147,2.942,27.218C492.211,310.424,492.565,310.529,492.92,310.635z" clip-rule="evenodd"/><path fill="#BD624D" fill-rule="evenodd" d="M374.547,309.955c0.852-7.636,1.686-15.137,2.525-22.637 c0.185-1.65,0.51-3.294,0.563-4.947c0.103-3.254,2.456-2.382,4.308-2.492c2.361-0.141,2.205,1.462,2.048,2.999 c-1.063,10.414-2.11,20.831-3.256,31.237c-0.236,2.146-1.403,3.93-3.811,3.862c-2.973-0.082-6.529,1.317-8.364-2.561 c-1.561-3.299-3.014-6.651-4.67-9.899c-0.489-0.958-0.65-2.599-2.015-2.597c-1.6,0.004-1.692,1.733-2.237,2.851 c-1.456,2.984-3.065,5.912-4.271,8.998c-1.81,4.63-5.657,3.256-8.924,3.157c-3.498-0.105-3.299-3.022-3.56-5.524 c-0.966-9.252-2.108-18.487-2.883-27.754c-0.125-1.498-2.504-4.412,1.73-4.839c3.352-0.337,4.162,1.08,4.442,4.15 c0.785,8.585,1.926,17.138,2.916,25.615c1.917,0.687,2.102-0.813,2.555-1.755c2.227-4.635,4.381-9.304,6.579-13.952 c0.718-1.517,1.494-3.192,3.4-3.272c2.153-0.09,3.141,1.644,3.935,3.328c1.908,4.046,3.682,8.155,5.666,12.163 C371.896,307.447,372.03,309.365,374.547,309.955z" clip-rule="evenodd"/><path fill="#BD624D" fill-rule="evenodd" d="M395.093,287.313c0-8.816,0.075-17.633-0.047-26.446 c-0.036-2.59,0.357-3.899,3.449-3.863c2.964,0.034,3.674,1.122,3.558,3.825c-0.18,4.15,0.112,8.323-0.098,12.471 c-0.163,3.214,0.646,4.388,4.173,3.905c6.354-0.867,12.555-0.656,17.762,4.189c3.947,3.672,5.678,8.183,5.846,13.305 c0.219,6.646-0.033,13.309,0.113,19.959c0.056,2.573-0.746,3.524-3.388,3.473c-2.448-0.049-3.639-0.621-3.583-3.354 c0.131-6.317,0.146-12.645-0.035-18.961c-0.29-10.166-10.347-15.854-19.409-11.212c-1.908,0.976-1.394,2.443-1.402,3.806 c-0.054,8.65-0.113,17.302,0.022,25.949c0.042,2.668-0.522,3.815-3.519,3.808c-3.06-0.008-3.521-1.307-3.488-3.905 C395.163,305.279,395.093,296.296,395.093,287.313z" clip-rule="evenodd"/><path fill="#BD624D" fill-rule="evenodd" d="M683.057,287.244c0-8.816,0.088-17.635-0.053-26.448 c-0.042-2.686,0.537-3.793,3.525-3.792c3.07,0.001,3.578,1.288,3.483,3.896c-0.156,4.319,0.062,8.651-0.077,12.973 c-0.088,2.766,0.578,3.752,3.688,3.354c6.691-0.86,13.227-0.713,18.624,4.553c3.737,3.646,5.266,8.07,5.443,12.982 c0.239,6.646-0.031,13.309,0.126,19.959c0.063,2.647-0.889,3.433-3.451,3.41c-2.52-0.022-3.58-0.75-3.521-3.417 c0.134-5.986,0.085-11.978-0.007-17.965c-0.167-10.941-8.703-16.354-19.027-12.301c-2.263,0.888-1.816,2.47-1.823,4.028 c-0.035,8.317-0.021,16.635-0.015,24.952c0.002,2.457,0.645,4.871-3.543,4.773c-4.228-0.099-3.352-2.671-3.359-5.008 C683.037,304.544,683.057,295.895,683.057,287.244z" clip-rule="evenodd"/><path fill="#BC5F4A" fill-rule="evenodd" d="M97.975,287.106c0-8.832,0.112-17.667-0.062-26.494 c-0.059-2.992,1.131-3.548,3.801-3.573c2.733-0.026,3.409,1.019,3.329,3.528c-0.149,4.66,0.026,9.331-0.064,13.995 c-0.042,2.166,0.682,2.91,2.919,2.672c2.805-0.3,5.666-0.43,8.477-0.246c8.167,0.53,14.249,6.174,15.68,14.244 c1.409,7.947,0.451,15.966,0.807,23.942c0.142,3.188-1.883,2.771-3.906,2.913c-2.444,0.173-3.149-0.831-3.102-3.168 c0.121-5.998,0.152-12.001,0.008-17.996c-0.267-11.091-8.573-16.47-18.947-12.547c-2.229,0.842-1.902,2.388-1.906,3.989 c-0.016,7.999,0.064,15.999-0.051,23.996c-0.036,2.479,1.429,5.871-3.602,5.792c-4.713-0.073-3.306-3.233-3.337-5.552 C97.906,304.105,97.974,295.605,97.975,287.106z" clip-rule="evenodd"/><path fill="#BE6450" fill-rule="evenodd" d="M752.479,292.961c-1.022-4.711-3.807-6.902-8.021-7.062 c-3.306-0.126-6.772-0.264-9.908,0.572c-3.411,0.908-3.523-1.103-4.165-3.161c-0.881-2.834,1.073-2.98,2.967-3.267 c1.644-0.247,3.271-0.624,4.918-0.821c13.596-1.626,21.317,5.124,21.49,18.823c0.071,5.657,0.004,11.316,0.014,16.976 c0.003,1.56-0.02,3.462-2.178,2.965c-5.654-1.301-10.971,1.632-16.568,0.988c-3.417-0.393-6.496-1.334-9.095-3.581 c-4.427-3.832-6.321-8.727-4.581-14.324c1.752-5.639,6.294-8.393,11.991-9.089C743.632,291.456,747.923,291.91,752.479,292.961z M743.324,312.442c2.352-0.309,4.696-0.164,6.765-1.52c3.155-2.066,2.998-5.184,3.007-8.379c0.004-1.823-0.76-2.687-2.383-3.175 c-4.181-1.258-8.357-1.853-12.658-0.539c-2.598,0.793-4.488,2.294-4.781,5.059c-0.315,2.987,0.767,5.48,3.42,7.175 C738.77,312.39,741.127,312.178,743.324,312.442z" clip-rule="evenodd"/><path fill="#BE6450" fill-rule="evenodd" d="M877.211,302.829c-3.499,0.003-7.001,0.091-10.497-0.025 c-2.716-0.09-3.061,1.085-2.354,3.382c1.377,4.479,4.682,6.397,8.99,6.571c2.963,0.12,6.018-0.132,8.911-0.765 c3.135-0.686,4.079,0.619,4.684,3.347c0.757,3.414-1.947,2.317-3.345,2.791c-2.883,0.977-5.917,0.864-8.909,0.854 c-9.8-0.036-15.756-4.797-17.183-14.482c-1.128-7.655-1.455-15.486,5.088-21.353c5.712-5.121,14.828-5.665,21.966-1.645 c5.785,3.258,8.576,9.914,7.566,17.707c-0.354,2.729-1.902,3.648-4.42,3.623C884.21,302.799,880.71,302.825,877.211,302.829z M874.191,296.1c2.49,0,5.004-0.223,7.464,0.051c3.928,0.438,4.147-1.673,3.32-4.475c-1.389-4.702-5.188-6.204-9.537-6.564 c-4.925-0.409-9.399,2.28-10.873,6.25c-1.116,3.008-1.167,5.235,3.157,4.779C869.856,295.915,872.033,296.102,874.191,296.1z" clip-rule="evenodd"/><path fill="#BE6450" fill-rule="evenodd" d="M162.381,302.827c-3.499,0.004-7.009,0.17-10.495-0.043 c-3.394-0.208-3.651,1.561-2.776,3.979c1.404,3.878,4.497,5.809,8.442,5.955c3.132,0.116,6.397,0.02,9.405-0.753 c3.355-0.862,3.914,0.83,4.551,3.313c0.867,3.379-1.906,2.435-3.314,2.844c-3.889,1.132-7.919,1.074-11.897,0.703 c-8.033-0.749-13.764-6.67-14.349-14.738c-0.192-2.653-0.014-5.331-0.124-7.993c-0.517-12.49,10.18-17.893,19.225-17.186 c10.25,0.802,16.789,8.943,15.828,19.766c-0.261,2.939-1.762,4.126-4.496,4.144C169.047,302.84,165.714,302.822,162.381,302.827z M159.187,296.111c2.326,0,4.671-0.197,6.971,0.042c4.232,0.44,4.4-1.833,3.36-4.816c-1.694-4.862-5.777-6.143-10.317-6.229 c-4.701-0.09-8.495,1.766-10.144,6.458c-0.922,2.62-0.909,5.008,3.158,4.587C154.516,295.914,156.861,296.109,159.187,296.111z" clip-rule="evenodd"/><path fill="#BF6651" fill-rule="evenodd" d="M438.842,300.252c-0.038-17.695,13.3-26.213,27.252-18.478 c0.433,0.24,0.908,0.418,1.313,0.698c6.619,4.569,9.044,20.465,4.345,28.412c-4.39,7.427-15.99,10.246-24.319,5.889 C440.261,313.022,438.371,306.672,438.842,300.252z M467.229,299.175c0.053-9.271-2.839-13.073-10.152-13.342 c-5.501-0.202-9.97,2.396-11.14,6.478c-2.149,7.494-0.118,16.004,4.434,18.589C458.881,315.73,467.168,309.966,467.229,299.175z" clip-rule="evenodd"/><path fill="#BF6651" fill-rule="evenodd" d="M330.992,299.146c0.74,7.428-1.206,13.919-8.396,17.544 c-6.522,3.289-13.188,3.046-19.511-0.87c-3.085-1.911-5.145-4.621-6.124-8.182c-1.398-5.09-1.34-10.27-0.456-15.34 c1.478-8.464,9.321-13.867,18.472-13.195c9.146,0.671,15.473,6.743,16,15.405C331.07,296.002,330.992,297.506,330.992,299.146z M324.702,300.729c0-1.705,0.036-2.371-0.005-3.031c-0.54-8.604-4.01-12.078-11.839-11.866 c-6.94,0.188-10.013,3.988-10.028,12.406c-0.003,1.494-0.055,2.989,0.012,4.479c0.243,5.46,3.582,8.907,9.008,9.359 C320.208,312.773,324.421,308.723,324.702,300.729z" clip-rule="evenodd"/><path fill="#BF6651" fill-rule="evenodd" d="M253.27,300.105c0-4.658,0.156-9.321-0.049-13.971 c-0.166-3.749,1.548-5.525,5.064-6.02c1.478-0.207,2.934-0.568,4.408-0.812c16.663-2.75,24.217,7.066,23.511,19.171 c-0.309,5.301-0.023,10.64,0.089,15.961c0.047,2.223-0.084,3.702-3.076,3.741c-3.151,0.042-3.395-1.406-3.417-3.921 c-0.062-6.808,0.588-13.643-0.59-20.418c-1.207-6.942-12.88-11.592-18.417-7.338c-1.454,1.117-0.919,2.744-0.928,4.165 c-0.052,7.817-0.075,15.636,0.004,23.453c0.024,2.409-0.064,4.061-3.319,4.057c-3.282-0.004-3.345-1.721-3.304-4.098 C253.327,309.42,253.27,304.763,253.27,300.105z" clip-rule="evenodd"/><path fill="#BD624D" fill-rule="evenodd" d="M66.525,290.853c0-7.481-0.218-14.973,0.089-22.442 c0.16-3.88-1.232-5.039-4.841-4.625c-1.969,0.226-3.995-0.078-5.979,0.069c-2.452,0.182-3.538-0.485-3.577-3.255 c-0.042-2.994,1.128-3.581,3.814-3.541c9.143,0.135,18.29,0.131,27.434,0.001c2.547-0.036,3.522,0.631,3.462,3.325 c-0.055,2.444-0.525,3.539-3.292,3.523c-3.409-0.019-8.177-1.682-9.899,0.814c-1.735,2.515-0.693,7.01-0.706,10.638 c-0.043,12.803-0.049,25.605,0.01,38.408c0.012,2.558,0.003,4.44-3.55,4.394c-3.619-0.049-2.946-2.313-2.954-4.363 C66.508,306.15,66.525,298.502,66.525,290.853z" clip-rule="evenodd"/><path fill="#BC5F4A" fill-rule="evenodd" d="M776.949,302.701c-0.002,4.159-0.139,8.323,0.047,12.474 c0.119,2.653-1.209,2.888-3.331,2.932c-2.302,0.048-3.269-0.623-3.244-3.076c0.098-9.979,0.081-19.961,0.021-29.94 c-0.018-2.919,1.614-4.194,4.14-4.717c4.067-0.842,8.163-1.502,12.342-1.41c8.64,0.19,15.497,6.528,15.998,15.248 c0.392,6.8,0.224,13.631,0.456,20.442c0.087,2.539-0.685,3.458-3.362,3.491c-2.858,0.037-3.253-1.21-3.2-3.594 c0.122-5.487,0.098-10.979,0.014-16.466c-0.164-10.748-8.133-15.938-18.147-11.994c-1.954,0.77-1.708,2.194-1.718,3.637 C776.932,294.052,776.951,298.377,776.949,302.701z" clip-rule="evenodd"/><path fill="#BF6651" fill-rule="evenodd" d="M603.079,317.474c2.198-4.852,4.215-9.745,6.621-14.44 c1.357-2.646,1.333-4.907,0.071-7.515c-2.375-4.903-4.535-9.912-6.847-15.017c4.446-1.544,7.293-0.76,8.81,3.73 c1.057,3.13,2.638,6.087,4.044,9.094c0.549,1.174,0.991,2.509,2.705,2.552c1.968,0.048,2.405-1.419,3.021-2.798 c1.626-3.638,3.476-7.189,4.887-10.907c1.321-3.48,4.27-2.775,6.228-2.027c2.647,1.011,0.412,3.292-0.329,4.404 c-6.422,9.637-6.951,19.158-0.183,28.851c0.814,1.167,1.105,2.699,1.651,4.095c-4.377,1.499-7.196,0.566-8.662-3.925 c-0.973-2.979-2.59-5.741-3.828-8.64c-0.548-1.28-1.01-2.513-2.715-2.402c-1.557,0.101-2.268,1.179-2.836,2.454 c-1.216,2.734-2.728,5.367-3.64,8.197C610.604,317.748,607.841,319.162,603.079,317.474z" clip-rule="evenodd"/><path fill="#BE6450" fill-rule="evenodd" d="M641.447,299.761c-0.555-9.549,2.594-16.193,9.789-19.313 c5.98-2.593,12.109-1.308,18.167-0.213c2.305,0.417,1.539,2.28,1.134,3.594c-0.377,1.224-0.2,3.145-2.676,2.669 c-2.599-0.499-5.277-0.723-7.928-0.772c-1.965-0.037-4.061,0.05-5.888,0.686c-5.174,1.8-7.204,7.923-5.91,16.979 c0.837,5.86,3.716,8.772,9.407,9.008c2.977,0.122,6.058,0.046,8.944-0.599c2.954-0.66,3.758,0.567,4.31,3.019 c0.607,2.698-1.031,2.893-2.971,3.35c-11.167,2.628-19.177,0.351-23.762-6.624C641.809,308.114,641.872,304.299,641.447,299.761z" clip-rule="evenodd"/><path fill="#448D9B" fill-rule="evenodd" d="M1022.913,216.988c-2.398-2.84-6.128-3.679-8.922-5.957 c-2.608-2.126-5.264-4.193-6.023-7.663c-0.403-1.844-0.28-3.802,2.09-4.405c2.087-0.532,3.158,0.659,3.485,2.548 c0.599,3.451,3.499,4.833,5.987,6.265c13.324,7.666,27.662,12.125,43.086,12.641c3.372,0.112,7,0.604,9.63-2.676 c0.928-1.157,2.439-0.863,3.564,0.19c1.34,1.254,1.228,2.635,0.215,4.018c-2.158,2.942-5.258,3.826-8.714,4.042 c-13.588,0.849-26.35-2.576-38.861-7.386c-1.817-0.698-3.438-2.12-5.603-1.682L1022.913,216.988z" clip-rule="evenodd"/><path fill="#448D9B" fill-rule="evenodd" d="M1066.227,215.634c-16.69-1.109-32.106-5.306-46.302-13.57 c-3.31-1.927-6.458-4.123-8.211-7.765c-1.115-2.318-1.591-4.869,1.062-6.049c2.684-1.193,3.732,0.848,4.146,3.367 c0.32,1.951,2.056,2.973,3.584,3.96c14.337,9.261,30.19,13.6,47.119,14.271c2.457,0.098,5.064-0.085,6.949-2.084 c1.561-1.653,3.246-1.943,4.655-0.155c1.439,1.826,0.248,3.547-1.115,4.83C1074.639,215.706,1070.117,215.199,1066.227,215.634z" clip-rule="evenodd"/><path fill="#448D9B" fill-rule="evenodd" d="M1067.736,204.979c-15.99-1.63-32.299-5.646-46.882-15.116 c-2.677-1.739-5.02-3.859-6.346-6.876c-0.999-2.273-0.841-4.546,1.542-5.534c2.493-1.034,3.494,0.807,3.91,3.082 c0.431,2.354,2.348,3.589,4.172,4.708c14.48,8.89,30.237,13.486,47.228,13.79c2.351,0.043,4.635-0.302,6.459-2.093 c1.551-1.522,3.417-1.813,4.654,0.113c1.135,1.766,0.276,3.638-1.296,4.846C1077.529,204.7,1073.176,204.893,1067.736,204.979z" clip-rule="evenodd"/><path fill="#448D9B" fill-rule="evenodd" d="M1022.848,216.923c0.071,2.732,1.561,4.468,3.855,5.755 c6.904,3.87,14.28,6.065,22.193,6.393c1.639,0.067,3.257,0.143,4.72-1.006c1.57-1.232,3.252-1.054,4.128,0.813 c0.762,1.627,0.314,3.268-1.27,4.385c-1.683,1.188-3.591,1.702-5.626,1.689c-10.182-0.068-19.563-2.99-28.313-8.074 c-0.847-0.492-1.537-1.26-2.279-1.922c-1.693-1.51-2.891-3.249-2.242-5.664c0.714-2.659,3.119-1.842,4.898-2.303L1022.848,216.923 z" clip-rule="evenodd"/><path fill="#FBF7F6" fill-rule="evenodd" d="M222.874,210.04c0.356,0.247,0.712,0.495,1.068,0.742 C223.585,210.535,223.229,210.287,222.874,210.04z" clip-rule="evenodd"/><path fill="#448D9B" fill-rule="evenodd" d="M143.001,152.256c0.797-1.458,1.408-3.202,3.662-1.755 c0.872,0.559,2.16,1.461,1.839,2.081c-1.117,2.159-3.318,2.321-5.521,2.11C142.989,153.88,142.995,153.069,143.001,152.256z" clip-rule="evenodd"/><path fill="#F7F0EF" fill-rule="evenodd" d="M115.001,100.172c0.966,0.058,1.932,0.115,2.897,0.173" clip-rule="evenodd"/><path fill="#448D9B" fill-rule="evenodd" d="M378.575,167.282c-1.18,2.506-4.633,2.543-4.748,5.854 c-0.051,1.473-2.185,0.884-3.366,0.638c-0.791-0.165-1.168-0.877-0.85-1.912C370.246,169.804,376.108,166.562,378.575,167.282z" clip-rule="evenodd"/><path fill="#448D9B" fill-rule="evenodd" d="M385.382,114.583c-2.427,1.225-2.86,4.444-6.508,5.835 C380.509,116.856,381.063,113.761,385.382,114.583z" clip-rule="evenodd"/><path fill="#3F8796" fill-rule="evenodd" d="M388.548,122.701c-0.717,0.657-1.434,2.25-2.433,0.673 c-0.687-1.083,0.658-1.453,1.548-1.727C387.958,121.999,388.253,122.349,388.548,122.701z" clip-rule="evenodd"/><path fill="#448D9B" fill-rule="evenodd" d="M569.936,119.998c1.455,3.999-0.482,6.717-6.534,8.11 c3.733-2.19,5.645-4.831,6.597-8.159C569.999,119.949,569.936,119.998,569.936,119.998z" clip-rule="evenodd"/><path fill="#3F8796" fill-rule="evenodd" d="M481.083,118.14c-0.265,0.816-1.164,1.732-1.595,1.371 c-1.053-0.885-0.001-1.574,0.728-2.155C480.502,117.616,480.792,117.878,481.083,118.14z" clip-rule="evenodd"/><path fill="#3F8796" fill-rule="evenodd" d="M470.406,150.493c0.395-0.293,0.791-0.586,1.186-0.879 c0.255,0.644,0.13,1.152-0.522,1.473C470.836,150.903,470.615,150.705,470.406,150.493z" clip-rule="evenodd"/><path fill="#FAF5F4" fill-rule="evenodd" d="M469.89,111.026c-0.13-0.093-0.26-0.185-0.39-0.276 c0.159,0.063,0.318,0.126,0.477,0.189C469.978,110.938,469.89,111.026,469.89,111.026z" clip-rule="evenodd"/><path fill="#3F8796" fill-rule="evenodd" d="M467.881,60.995c3.216-2.774,6.433-5.549,10.642-9.18 c-1.811,6.383-6.377,7.608-9.844,10.096C468.413,61.605,468.146,61.301,467.881,60.995z" clip-rule="evenodd"/><path fill="#FBF7F6" fill-rule="evenodd" d="M467.986,41.012c-0.351-0.084-0.701-0.168-1.053-0.251" clip-rule="evenodd"/><path fill="#3F8796" fill-rule="evenodd" d="M466.934,40.76c0.352,0.084,0.702,0.168,1.053,0.252 c-0.463,0.794-0.872,1.701-2.063,1.01c-0.011-0.345-0.021-0.69-0.032-1.036C466.239,40.911,466.586,40.836,466.934,40.76z" clip-rule="evenodd"/><path fill="#3F8796" fill-rule="evenodd" d="M569.081,55.139c0.224,5.355-6.03,3.252-7.479,6.729 c0.085-4.475,5.81-3.735,6.602-7.494C568.494,54.628,568.787,54.884,569.081,55.139z" clip-rule="evenodd"/><path fill="#3F8796" fill-rule="evenodd" d="M220.948,66.972c0.282,0.879,0.231,1.644-0.819,1.919 c-0.219,0.057-0.753-0.219-0.744-0.288c0.123-0.915,0.719-1.41,1.594-1.606L220.948,66.972z" clip-rule="evenodd"/><path fill="#3F8796" fill-rule="evenodd" d="M673.312,153.304c0.842-0.919,1.498-2.088,2.995-2.218 c0.313,1.833-1.339,2.155-2.242,3.028C673.813,153.844,673.563,153.575,673.312,153.304z" clip-rule="evenodd"/><path fill="#3F8796" fill-rule="evenodd" d="M215.565,123.688c-0.439,0.271-0.753,1.228-1.364,0.572 c-0.443-0.476-0.106-1.15,0.549-1.477C215.022,123.085,215.294,123.387,215.565,123.688z" clip-rule="evenodd"/><path fill="#3F8796" fill-rule="evenodd" d="M557.605,36.708c2.234-3.126,3.978-6.922,9.726-6.671 c-3.31,2.875-6.012,5.22-8.711,7.565C558.283,37.304,557.944,37.005,557.605,36.708z" clip-rule="evenodd"/><path fill="#3F8796" fill-rule="evenodd" d="M470.086,175.132c-2.237,1.572-2.439,4.731-4.823,6.189 c-0.295-0.301-0.589-0.603-0.884-0.906c1.28-2.366,2.148-5.056,4.942-6.215C469.576,174.511,469.831,174.821,470.086,175.132z" clip-rule="evenodd"/><path fill="#3F8796" fill-rule="evenodd" d="M469.321,174.2c0.71-1.007,1.511-1.705,2.638-0.55 c0.243,0.25,0.278,0.701,0.41,1.06c-0.762,0.141-1.522,0.281-2.284,0.422C469.831,174.821,469.576,174.511,469.321,174.2z" clip-rule="evenodd"/><path fill="#3F8796" fill-rule="evenodd" d="M559.788,176.839c0.055-1.058,0.593-1.938,1.449-2.394 c1.01-0.537,2.224-2.379,3.242-0.828c1.232,1.876-1.58,1.291-2.095,2.357c-0.323,0.669-1.168,1.085-1.776,1.615 C560.335,177.34,560.062,177.09,559.788,176.839z" clip-rule="evenodd"/><path fill="#448D9B" fill-rule="evenodd" d="M282.507,191.469c-0.345-3.728,3.64-9.947,6.117-10.815 c1.36-0.477,1.715,0.365,2.402,1.015c0.853,0.805,0.459,1.449-0.178,2.047C288.263,186.141,285.658,188.545,282.507,191.469z" clip-rule="evenodd"/><path fill="#3F8796" fill-rule="evenodd" d="M290.076,177.102c-0.196,0.185-0.392,0.37-0.587,0.555 c0.005-0.371,0.011-0.741,0.013-1.113C289.702,176.716,289.895,176.902,290.076,177.102z" clip-rule="evenodd"/><path fill="#3F8796" fill-rule="evenodd" d="M477.569,87.703c-0.683,0.708-1.484,2.303-2.347,1.308 c-0.908-1.048,0.263-1.982,1.604-2.135C477.075,87.152,477.322,87.428,477.569,87.703z" clip-rule="evenodd"/><path fill="#408896" fill-rule="evenodd" d="M139.364,135.077c2.505,0.084,4.472-0.459,6.292-1.863 c1.536-1.186,3.371-2.001,6.251,0.235C146.928,132.973,145.119,142.226,139.364,135.077z" clip-rule="evenodd"/><path fill="#408896" fill-rule="evenodd" d="M130.513,125.085c-0.506-4.94,4.192-9.113,10.248-8.793 C136.226,118.673,133.433,121.559,130.513,125.085z" clip-rule="evenodd"/><path fill="#408896" fill-rule="evenodd" d="M127.594,119.482c-2.303-0.369-5.325,1.874-6.549-1.923 c-0.268-0.83-0.431-2.133,0.903-2.469C125.553,114.18,125.646,118.005,127.594,119.482z" clip-rule="evenodd"/><path fill="#3F8796" fill-rule="evenodd" d="M140.94,123.942c0.3,2.951-0.227,5.513-3.286,7.241 c-1.706-3.996-0.212-6.089,3.357-7.177L140.94,123.942z" clip-rule="evenodd"/><path fill="#448D9B" fill-rule="evenodd" d="M119.734,122.64c-0.821,0.552-0.54,2.554-2.289,1.833 c-0.698-0.288-1.698-0.78-1.256-1.749c0.46-1.01,1.683-0.71,2.594-0.92C119.1,122.083,119.417,122.362,119.734,122.64z" clip-rule="evenodd"/><path fill="#448D9B" fill-rule="evenodd" d="M118.783,121.805c0.387-1.133-1.305-2.01-0.023-3.735 c-0.03,1.91,5.25,1.653,0.971,4.569C119.417,122.362,119.1,122.083,118.783,121.805z" clip-rule="evenodd"/><path fill="#408896" fill-rule="evenodd" d="M37.792,97.771c2.606-5.143,7.067-6.786,13.274-6.796 c-3.294,4.781-9.377,3.817-12.387,7.635C38.384,98.331,38.088,98.051,37.792,97.771z" clip-rule="evenodd"/><path fill="#408896" fill-rule="evenodd" d="M48.702,110.673c0.436-0.621,1.193-0.94,1.679-0.486 c0.763,0.712-0.385,0.931-0.632,1.4C49.401,111.282,49.051,110.978,48.702,110.673z" clip-rule="evenodd"/></g></g></svg>